G04*
G04 #@! TF.GenerationSoftware,Altium Limited,Altium Designer,21.7.1 (17)*
G04*
G04 Layer_Color=8421504*
%FSLAX44Y44*%
%MOMM*%
G71*
G04*
G04 #@! TF.SameCoordinates,46D70AF8-5DF4-403A-B55C-3C1985085F34*
G04*
G04*
G04 #@! TF.FilePolarity,Positive*
G04*
G01*
G75*
%ADD18R,1.6000X0.5500*%
%ADD19R,0.5500X1.6000*%
%ADD20R,0.7500X0.7500*%
%ADD21R,0.7500X0.7500*%
%ADD22R,1.3000X0.9000*%
%ADD23R,0.8800X1.0200*%
%ADD24R,0.8000X0.8000*%
%ADD25R,0.8000X0.8000*%
%ADD26R,1.3500X2.2000*%
%ADD27R,6.0000X2.0000*%
%ADD28R,1.5200X0.6000*%
D18*
X339000Y137100D02*
D03*
Y145100D02*
D03*
Y153100D02*
D03*
Y161100D02*
D03*
Y169100D02*
D03*
Y177100D02*
D03*
Y185100D02*
D03*
Y193100D02*
D03*
X423000D02*
D03*
Y185100D02*
D03*
Y177100D02*
D03*
Y169100D02*
D03*
Y161100D02*
D03*
Y153100D02*
D03*
Y145100D02*
D03*
Y137100D02*
D03*
D19*
X353000Y207100D02*
D03*
X361000D02*
D03*
X369000D02*
D03*
X377000D02*
D03*
X385000D02*
D03*
X393000D02*
D03*
X401000D02*
D03*
X409000D02*
D03*
Y123100D02*
D03*
X401000D02*
D03*
X393000D02*
D03*
X385000D02*
D03*
X377000D02*
D03*
X369000D02*
D03*
X361000D02*
D03*
X353000D02*
D03*
D20*
X408940Y101480D02*
D03*
Y86480D02*
D03*
X474980Y256420D02*
D03*
Y241420D02*
D03*
X500380Y256420D02*
D03*
Y241420D02*
D03*
X393700Y101480D02*
D03*
Y86480D02*
D03*
X378460Y101480D02*
D03*
Y86480D02*
D03*
X363220Y101480D02*
D03*
Y86480D02*
D03*
X401320Y226180D02*
D03*
Y241180D02*
D03*
X416560Y226180D02*
D03*
Y241180D02*
D03*
X386080Y241180D02*
D03*
Y226180D02*
D03*
X208280Y78620D02*
D03*
Y63620D02*
D03*
Y48140D02*
D03*
Y33140D02*
D03*
Y170060D02*
D03*
Y155060D02*
D03*
Y139580D02*
D03*
Y124580D02*
D03*
Y258960D02*
D03*
Y243960D02*
D03*
Y228480D02*
D03*
Y213480D02*
D03*
D21*
X289680Y175260D02*
D03*
X304680D02*
D03*
X322714Y80469D02*
D03*
X307714D02*
D03*
X426840Y208280D02*
D03*
X441840D02*
D03*
X96640Y81280D02*
D03*
X111640D02*
D03*
X96640Y170180D02*
D03*
X111640D02*
D03*
X96640Y259080D02*
D03*
X111640D02*
D03*
X462160Y58420D02*
D03*
X447160D02*
D03*
X370960D02*
D03*
X385960D02*
D03*
X304680Y160020D02*
D03*
X289680D02*
D03*
X152520Y96520D02*
D03*
X167520D02*
D03*
X152520Y25400D02*
D03*
X167520D02*
D03*
X152520Y185420D02*
D03*
X167520D02*
D03*
X152520Y114300D02*
D03*
X167520D02*
D03*
X152520Y276860D02*
D03*
X167520D02*
D03*
X152520Y203200D02*
D03*
X167520D02*
D03*
X289680Y144780D02*
D03*
X304680D02*
D03*
X424060Y58420D02*
D03*
X409060D02*
D03*
D22*
X342900Y100940D02*
D03*
Y81940D02*
D03*
X436880Y226720D02*
D03*
Y245720D02*
D03*
D23*
X271780Y176370D02*
D03*
Y143670D02*
D03*
D24*
X322460Y63500D02*
D03*
X307460D02*
D03*
D25*
X474980Y205980D02*
D03*
Y220980D02*
D03*
X500380Y205980D02*
D03*
Y220980D02*
D03*
D26*
X104140Y26540D02*
D03*
Y54740D02*
D03*
Y115440D02*
D03*
Y143640D02*
D03*
Y204340D02*
D03*
Y232540D02*
D03*
D27*
X461560Y25400D02*
D03*
X371560D02*
D03*
D28*
X132620Y80010D02*
D03*
Y67310D02*
D03*
Y54610D02*
D03*
Y41910D02*
D03*
X187420Y80010D02*
D03*
Y67310D02*
D03*
Y54610D02*
D03*
Y41910D02*
D03*
X132620Y168910D02*
D03*
Y156210D02*
D03*
Y143510D02*
D03*
Y130810D02*
D03*
X187420Y168910D02*
D03*
Y156210D02*
D03*
Y143510D02*
D03*
Y130810D02*
D03*
X132620Y260350D02*
D03*
Y247650D02*
D03*
Y234950D02*
D03*
Y222250D02*
D03*
X187420Y260350D02*
D03*
Y247650D02*
D03*
Y234950D02*
D03*
Y222250D02*
D03*
M02*
