G04*
G04 #@! TF.GenerationSoftware,Altium Limited,Altium Designer,21.7.1 (17)*
G04*
G04 Layer_Color=128*
%FSLAX44Y44*%
%MOMM*%
G71*
G04*
G04 #@! TF.SameCoordinates,46D70AF8-5DF4-403A-B55C-3C1985085F34*
G04*
G04*
G04 #@! TF.FilePolarity,Positive*
G04*
G01*
G75*
%ADD21R,0.7500X0.7500*%
%ADD57R,5.8000X6.4000*%
%ADD58R,1.2000X2.2000*%
%ADD60R,0.6000X0.8000*%
D21*
X469900Y200660D02*
D03*
X454900D02*
D03*
X469900Y218440D02*
D03*
X454900D02*
D03*
X383900Y182880D02*
D03*
X398900D02*
D03*
X419340D02*
D03*
X434340D02*
D03*
X383900Y200660D02*
D03*
X398900D02*
D03*
X419340D02*
D03*
X434340D02*
D03*
X383900Y218440D02*
D03*
X398900D02*
D03*
X419340D02*
D03*
X434340D02*
D03*
X469900Y182880D02*
D03*
X454900D02*
D03*
D57*
X317500Y244860D02*
D03*
Y110240D02*
D03*
X220980D02*
D03*
Y244860D02*
D03*
X124460Y110240D02*
D03*
Y244860D02*
D03*
D58*
X294700Y181860D02*
D03*
X340300D02*
D03*
X294700Y47240D02*
D03*
X340300D02*
D03*
X198180D02*
D03*
X243780D02*
D03*
X198180Y181860D02*
D03*
X243780D02*
D03*
X101660Y47240D02*
D03*
X147260D02*
D03*
X101660Y181860D02*
D03*
X147260D02*
D03*
D60*
X482180Y167640D02*
D03*
X493180D02*
D03*
M02*
