G04*
G04 #@! TF.GenerationSoftware,Altium Limited,Altium Designer,21.7.1 (17)*
G04*
G04 Layer_Color=65535*
%FSLAX44Y44*%
%MOMM*%
G71*
G04*
G04 #@! TF.SameCoordinates,46D70AF8-5DF4-403A-B55C-3C1985085F34*
G04*
G04*
G04 #@! TF.FilePolarity,Positive*
G04*
G01*
G75*
%ADD10C,0.3500*%
%ADD11C,0.2000*%
%ADD12C,0.2540*%
%ADD13C,0.3000*%
%ADD14C,0.1270*%
%ADD15C,0.3810*%
%ADD16C,0.5080*%
%ADD17C,0.1500*%
D10*
X355000Y109100D02*
G03*
X355000Y109100I-2000J0D01*
G01*
D11*
X75100Y38100D02*
G03*
X75100Y38100I-37000J0D01*
G01*
X598340D02*
G03*
X598340Y38100I-37000J0D01*
G01*
X75100Y261620D02*
G03*
X75100Y261620I-37000J0D01*
G01*
X346000Y133100D02*
X349000Y130100D01*
X346000Y197100D02*
Y200100D01*
X349000D01*
X413000D02*
X416000D01*
Y197100D02*
Y200100D01*
Y130100D02*
Y133100D01*
X413000Y130100D02*
X416000D01*
X402590Y80010D02*
Y107950D01*
X415290D01*
Y80010D02*
Y107950D01*
X402590Y80010D02*
X415290D01*
X283210Y168910D02*
X311150D01*
X283210D02*
Y181610D01*
X311150D01*
Y168910D02*
Y181610D01*
X301244Y86819D02*
X329184D01*
Y74118D02*
Y86819D01*
X301244Y74118D02*
X329184D01*
X301244D02*
Y86819D01*
X468630Y234950D02*
Y262890D01*
X481330D01*
Y234950D02*
Y262890D01*
X468630Y234950D02*
X481330D01*
X494030D02*
Y262890D01*
X506730D01*
Y234950D02*
Y262890D01*
X494030Y234950D02*
X506730D01*
X420370Y201930D02*
X448310D01*
X420370D02*
Y214630D01*
X448310D01*
Y201930D02*
Y214630D01*
X332740Y73660D02*
X353060D01*
X332740D02*
Y109220D01*
X353060D01*
Y73660D02*
Y109220D01*
X426720Y254000D02*
X447040D01*
Y218440D02*
Y254000D01*
X426720Y218440D02*
X447040D01*
X426720D02*
Y254000D01*
X280780Y136020D02*
Y180020D01*
X262780Y136020D02*
Y180020D01*
Y136020D02*
X280780D01*
X274780Y186020D02*
X280780Y180020D01*
X262780Y180020D02*
X268780Y186020D01*
X332740Y55880D02*
Y71120D01*
X299720D02*
X330200D01*
X299720Y55880D02*
Y71120D01*
Y55880D02*
X330200D01*
Y71120D01*
Y55880D02*
X332740D01*
X330200Y71120D02*
X332740D01*
X467360Y195700D02*
X482600D01*
Y198240D02*
Y228720D01*
X467360D02*
X482600D01*
X467360Y198240D02*
Y228720D01*
Y198240D02*
X482600D01*
X467360Y195700D02*
Y198240D01*
X482600Y195700D02*
Y198240D01*
X492760Y195700D02*
X508000D01*
Y198240D02*
Y228720D01*
X492760D02*
X508000D01*
X492760Y198240D02*
Y228720D01*
Y198240D02*
X508000D01*
X492760Y195700D02*
Y198240D01*
X508000Y195700D02*
Y198240D01*
X90170Y74930D02*
X118110D01*
X90170D02*
Y87630D01*
X118110D01*
Y74930D02*
Y87630D01*
X90140Y10640D02*
Y64640D01*
X96140Y70640D01*
X112140D01*
X118140Y10640D02*
Y64640D01*
X112140Y70640D02*
X118140Y64640D01*
X112140Y70640D02*
X118140Y64640D01*
X90140D02*
X96140Y70640D01*
X90140Y10640D02*
X118140D01*
X90170Y163830D02*
X118110D01*
X90170D02*
Y176530D01*
X118110D01*
Y163830D02*
Y176530D01*
X90140Y99540D02*
Y153540D01*
X96140Y159540D01*
X112140D01*
X118140Y99540D02*
Y153540D01*
X112140Y159540D02*
X118140Y153540D01*
X112140Y159540D02*
X118140Y153540D01*
X90140D02*
X96140Y159540D01*
X90140Y99540D02*
X118140D01*
X90170Y252730D02*
X118110D01*
X90170D02*
Y265430D01*
X118110D01*
Y252730D02*
Y265430D01*
X90140Y188440D02*
Y242440D01*
X96140Y248440D01*
X112140D01*
X118140Y188440D02*
Y242440D01*
X112140Y248440D02*
X118140Y242440D01*
X112140Y248440D02*
X118140Y242440D01*
X90140D02*
X96140Y248440D01*
X90140Y188440D02*
X118140D01*
X440690Y64770D02*
X468630D01*
Y52070D02*
Y64770D01*
X440690Y52070D02*
X468630D01*
X440690D02*
Y64770D01*
X364490Y52070D02*
X392430D01*
X364490D02*
Y64770D01*
X392430D01*
Y52070D02*
Y64770D01*
X283210Y166370D02*
X311150D01*
Y153670D02*
Y166370D01*
X283210Y153670D02*
X311150D01*
X283210D02*
Y166370D01*
X387350Y80010D02*
Y107950D01*
X400050D01*
Y80010D02*
Y107950D01*
X387350Y80010D02*
X400050D01*
X372110D02*
Y107950D01*
X384810D01*
Y80010D02*
Y107950D01*
X372110Y80010D02*
X384810D01*
X356870D02*
Y107950D01*
X369570D01*
Y80010D02*
Y107950D01*
X356870Y80010D02*
X369570D01*
X407670Y219710D02*
Y247650D01*
X394970Y219710D02*
X407670D01*
X394970D02*
Y247650D01*
X407670D01*
X422910Y219710D02*
Y247650D01*
X410210Y219710D02*
X422910D01*
X410210D02*
Y247650D01*
X422910D01*
X379730Y219710D02*
Y247650D01*
X392430D01*
Y219710D02*
Y247650D01*
X379730Y219710D02*
X392430D01*
X356560Y1400D02*
Y49400D01*
X476560D01*
Y1400D02*
Y49400D01*
X356560Y1400D02*
X476560D01*
X140020Y35960D02*
X180020D01*
X140020D02*
Y86360D01*
X180020Y35960D02*
Y86360D01*
X140020D02*
X180020D01*
X140020Y124860D02*
X180020D01*
X140020D02*
Y175260D01*
X180020Y124860D02*
Y175260D01*
X140020D02*
X180020D01*
X140020Y216300D02*
X180020D01*
X140020D02*
Y266700D01*
X180020Y216300D02*
Y266700D01*
X140020D02*
X180020D01*
X146050Y90170D02*
X173990D01*
X146050D02*
Y102870D01*
X173990D01*
Y90170D02*
Y102870D01*
X201930Y57150D02*
Y85090D01*
X214630D01*
Y57150D02*
Y85090D01*
X201930Y57150D02*
X214630D01*
X146050Y19050D02*
X173990D01*
X146050D02*
Y31750D01*
X173990D01*
Y19050D02*
Y31750D01*
X201930Y26670D02*
Y54610D01*
X214630D01*
Y26670D02*
Y54610D01*
X201930Y26670D02*
X214630D01*
X146050Y179070D02*
X173990D01*
X146050D02*
Y191770D01*
X173990D01*
Y179070D02*
Y191770D01*
X201930Y148590D02*
Y176530D01*
X214630D01*
Y148590D02*
Y176530D01*
X201930Y148590D02*
X214630D01*
X146050Y107950D02*
X173990D01*
X146050D02*
Y120650D01*
X173990D01*
Y107950D02*
Y120650D01*
X201930Y118110D02*
Y146050D01*
X214630D01*
Y118110D02*
Y146050D01*
X201930Y118110D02*
X214630D01*
X146050Y270510D02*
X173990D01*
X146050D02*
Y283210D01*
X173990D01*
Y270510D02*
Y283210D01*
X201930Y237490D02*
Y265430D01*
X214630D01*
Y237490D02*
Y265430D01*
X201930Y237490D02*
X214630D01*
X146050Y196850D02*
X173990D01*
X146050D02*
Y209550D01*
X173990D01*
Y196850D02*
Y209550D01*
X201930Y207010D02*
Y234950D01*
X214630D01*
Y207010D02*
Y234950D01*
X201930Y207010D02*
X214630D01*
X283210Y138430D02*
X311150D01*
X283210D02*
Y151130D01*
X311150D01*
Y138430D02*
Y151130D01*
X402590Y64770D02*
X430530D01*
Y52070D02*
Y64770D01*
X402590Y52070D02*
X430530D01*
X402590D02*
Y64770D01*
D12*
X204020Y41960D02*
G03*
X204020Y41960I-2000J0D01*
G01*
Y130860D02*
G03*
X204020Y130860I-2000J0D01*
G01*
Y222300D02*
G03*
X204020Y222300I-2000J0D01*
G01*
X589240Y93640D02*
Y190640D01*
X503240Y93640D02*
Y190640D01*
Y93640D02*
X589240D01*
X503240Y190640D02*
X589240D01*
X383540Y269240D02*
Y294640D01*
X541020D01*
Y269240D02*
Y294640D01*
X383540Y269240D02*
X541020D01*
X528700Y82180D02*
Y85512D01*
Y83846D01*
X518703D01*
X520369Y82180D01*
X377190Y290830D02*
Y294162D01*
Y292496D01*
X367193D01*
X368859Y290830D01*
D13*
X268780Y186020D02*
X274780D01*
D14*
X485140Y140970D02*
Y146048D01*
X487679D01*
X488526Y145202D01*
Y143509D01*
X487679Y142663D01*
X485140D01*
X490218Y146048D02*
Y140970D01*
X491911Y142663D01*
X493604Y140970D01*
Y146048D01*
X495297Y140970D02*
Y146048D01*
X496990Y144356D01*
X498682Y146048D01*
Y140970D01*
X488526Y119802D02*
X487679Y120648D01*
X485986D01*
X485140Y119802D01*
Y116416D01*
X485986Y115570D01*
X487679D01*
X488526Y116416D01*
Y118109D01*
X486833D01*
X490218Y115570D02*
Y120648D01*
X493604Y115570D01*
Y120648D01*
X495297D02*
Y115570D01*
X497836D01*
X498682Y116416D01*
Y119802D01*
X497836Y120648D01*
X495297D01*
X492336Y170178D02*
X488950D01*
Y167639D01*
X490643Y168486D01*
X491489D01*
X492336Y167639D01*
Y165946D01*
X491489Y165100D01*
X489796D01*
X488950Y165946D01*
X494028Y170178D02*
Y166793D01*
X495721Y165100D01*
X497414Y166793D01*
Y170178D01*
X526626Y265428D02*
X523240D01*
Y262889D01*
X524933Y263736D01*
X525779D01*
X526626Y262889D01*
Y261196D01*
X525779Y260350D01*
X524086D01*
X523240Y261196D01*
X528318Y265428D02*
Y262043D01*
X530011Y260350D01*
X531704Y262043D01*
Y265428D01*
X515620Y248920D02*
X510542D01*
X512234Y250613D01*
X510542Y252306D01*
X515620D01*
X510542Y256537D02*
Y254845D01*
X511388Y253998D01*
X514774D01*
X515620Y254845D01*
Y256537D01*
X514774Y257384D01*
X511388D01*
X510542Y256537D01*
X511388Y262462D02*
X510542Y261616D01*
Y259923D01*
X511388Y259077D01*
X512234D01*
X513081Y259923D01*
Y261616D01*
X513927Y262462D01*
X514774D01*
X515620Y261616D01*
Y259923D01*
X514774Y259077D01*
X510542Y264155D02*
Y265848D01*
Y265002D01*
X515620D01*
Y264155D01*
Y265848D01*
X490220Y247650D02*
X485142D01*
X486834Y249343D01*
X485142Y251036D01*
X490220D01*
X485142Y252728D02*
Y254421D01*
Y253575D01*
X490220D01*
Y252728D01*
Y254421D01*
X485988Y260346D02*
X485142Y259499D01*
Y257807D01*
X485988Y256960D01*
X486834D01*
X487681Y257807D01*
Y259499D01*
X488527Y260346D01*
X489374D01*
X490220Y259499D01*
Y257807D01*
X489374Y256960D01*
X485142Y264578D02*
Y262885D01*
X485988Y262039D01*
X489374D01*
X490220Y262885D01*
Y264578D01*
X489374Y265424D01*
X485988D01*
X485142Y264578D01*
X446616Y264582D02*
X445769Y265428D01*
X444076D01*
X443230Y264582D01*
Y263736D01*
X444076Y262889D01*
X445769D01*
X446616Y262043D01*
Y261196D01*
X445769Y260350D01*
X444076D01*
X443230Y261196D01*
X451694Y264582D02*
X450848Y265428D01*
X449155D01*
X448308Y264582D01*
Y261196D01*
X449155Y260350D01*
X450848D01*
X451694Y261196D01*
X453387Y265428D02*
Y260350D01*
Y262043D01*
X456772Y265428D01*
X454233Y262889D01*
X456772Y260350D01*
X417830D02*
Y265428D01*
X420369D01*
X421216Y264582D01*
Y262889D01*
X420369Y262043D01*
X417830D01*
X419523D02*
X421216Y260350D01*
X426294Y264582D02*
X425448Y265428D01*
X423755D01*
X422908Y264582D01*
Y263736D01*
X423755Y262889D01*
X425448D01*
X426294Y262043D01*
Y261196D01*
X425448Y260350D01*
X423755D01*
X422908Y261196D01*
X427987Y265428D02*
X431372D01*
X429679D01*
Y260350D01*
X395816Y264582D02*
X394969Y265428D01*
X393276D01*
X392430Y264582D01*
Y261196D01*
X393276Y260350D01*
X394969D01*
X395816Y261196D01*
Y262889D01*
X394123D01*
X397508Y260350D02*
Y265428D01*
X400894Y260350D01*
Y265428D01*
X402587D02*
Y260350D01*
X405126D01*
X405972Y261196D01*
Y264582D01*
X405126Y265428D01*
X402587D01*
D15*
X15245Y85090D02*
X30480D01*
Y92708D01*
X27941Y95247D01*
X25402D01*
X22863Y92708D01*
Y85090D01*
Y92708D01*
X20323Y95247D01*
X17784D01*
X15245Y92708D01*
Y85090D01*
X30480Y100325D02*
X15245D01*
Y107943D01*
X17784Y110482D01*
X22863D01*
X25402Y107943D01*
Y100325D01*
Y105403D02*
X30480Y110482D01*
Y115560D02*
X20323D01*
X15245Y120639D01*
X20323Y125717D01*
X30480D01*
X22863D01*
Y115560D01*
X15245Y130795D02*
Y135874D01*
Y133334D01*
X30480D01*
Y130795D01*
Y135874D01*
Y143491D02*
X15245D01*
X30480Y153648D01*
X15245D01*
X30480Y158726D02*
X27941D01*
Y161265D01*
X30480D01*
Y158726D01*
X15245Y171422D02*
X30480D01*
Y179040D01*
X27941Y181579D01*
X17784D01*
X15245Y179040D01*
Y171422D01*
Y186657D02*
X30480D01*
Y196814D01*
X15245Y201892D02*
X30480D01*
Y212049D01*
D16*
X208280Y290824D02*
Y273050D01*
X217167D01*
X220130Y276012D01*
Y278975D01*
X217167Y281937D01*
X208280D01*
X217167D01*
X220130Y284900D01*
Y287862D01*
X217167Y290824D01*
X208280D01*
X226054Y273050D02*
Y290824D01*
X234941D01*
X237904Y287862D01*
Y281937D01*
X234941Y278975D01*
X226054D01*
X231979D02*
X237904Y273050D01*
X243829D02*
Y284900D01*
X249753Y290824D01*
X255678Y284900D01*
Y273050D01*
Y281937D01*
X243829D01*
X261603Y290824D02*
X267528D01*
X264565D01*
Y273050D01*
X261603D01*
X267528D01*
X276415D02*
Y290824D01*
X288264Y273050D01*
Y290824D01*
X294189Y273050D02*
Y276012D01*
X297151D01*
Y273050D01*
X294189D01*
X309001Y290824D02*
Y273050D01*
X317888D01*
X320850Y276012D01*
Y287862D01*
X317888Y290824D01*
X309001D01*
X326775D02*
Y273050D01*
X338625D01*
X344549Y290824D02*
Y273050D01*
X356399D01*
D17*
X372421Y281940D02*
Y279607D01*
Y280774D01*
X378253D01*
X379419Y279607D01*
Y278441D01*
X378253Y277275D01*
X379419Y284273D02*
Y286605D01*
Y285439D01*
X372421D01*
X373587Y284273D01*
X343315Y46679D02*
Y45513D01*
X345647Y43180D01*
X347980Y45513D01*
Y46679D01*
X345647Y43180D02*
Y39681D01*
X350313D02*
X352645D01*
X351479D01*
Y46679D01*
X350313Y45513D01*
X144029Y82239D02*
Y76407D01*
X145195Y75241D01*
X147527D01*
X148694Y76407D01*
Y82239D01*
X154525Y75241D02*
Y82239D01*
X151026Y78740D01*
X155691D01*
X144029Y171139D02*
Y165307D01*
X145195Y164141D01*
X147527D01*
X148694Y165307D01*
Y171139D01*
X151026Y169973D02*
X152193Y171139D01*
X154525D01*
X155691Y169973D01*
Y168806D01*
X154525Y167640D01*
X153359D01*
X154525D01*
X155691Y166474D01*
Y165307D01*
X154525Y164141D01*
X152193D01*
X151026Y165307D01*
X144029Y262579D02*
Y256747D01*
X145195Y255581D01*
X147527D01*
X148694Y256747D01*
Y262579D01*
X155691Y255581D02*
X151026D01*
X155691Y260246D01*
Y261413D01*
X154525Y262579D01*
X152193D01*
X151026Y261413D01*
X334518Y229248D02*
Y223416D01*
X335684Y222250D01*
X338017D01*
X339183Y223416D01*
Y229248D01*
X341516Y222250D02*
X343848D01*
X342682D01*
Y229248D01*
X341516Y228081D01*
X177360Y93021D02*
Y100019D01*
X180858D01*
X182025Y98853D01*
Y96520D01*
X180858Y95354D01*
X177360D01*
X179692D02*
X182025Y93021D01*
X189023D02*
X184357D01*
X189023Y97686D01*
Y98853D01*
X187856Y100019D01*
X185524D01*
X184357Y98853D01*
X191355D02*
X192521Y100019D01*
X194854D01*
X196020Y98853D01*
Y94187D01*
X194854Y93021D01*
X192521D01*
X191355Y94187D01*
Y98853D01*
X224479Y62373D02*
X217481D01*
Y65872D01*
X218647Y67038D01*
X220980D01*
X222146Y65872D01*
Y62373D01*
Y64705D02*
X224479Y67038D01*
Y69371D02*
Y71703D01*
Y70537D01*
X217481D01*
X218647Y69371D01*
X223313Y75202D02*
X224479Y76368D01*
Y78701D01*
X223313Y79867D01*
X218647D01*
X217481Y78701D01*
Y76368D01*
X218647Y75202D01*
X219814D01*
X220980Y76368D01*
Y79867D01*
X149098Y39370D02*
Y46368D01*
X152597D01*
X153763Y45202D01*
Y42869D01*
X152597Y41703D01*
X149098D01*
X151431D02*
X153763Y39370D01*
X156096D02*
X158428D01*
X157262D01*
Y46368D01*
X156096Y45202D01*
X161927D02*
X163093Y46368D01*
X165426D01*
X166592Y45202D01*
Y44035D01*
X165426Y42869D01*
X166592Y41703D01*
Y40536D01*
X165426Y39370D01*
X163093D01*
X161927Y40536D01*
Y41703D01*
X163093Y42869D01*
X161927Y44035D01*
Y45202D01*
X163093Y42869D02*
X165426D01*
X224479Y31893D02*
X217481D01*
Y35392D01*
X218647Y36558D01*
X220980D01*
X222146Y35392D01*
Y31893D01*
Y34225D02*
X224479Y36558D01*
Y38891D02*
Y41223D01*
Y40057D01*
X217481D01*
X218647Y38891D01*
X217481Y44722D02*
Y49387D01*
X218647D01*
X223313Y44722D01*
X224479D01*
X124603Y181921D02*
Y188919D01*
X128102D01*
X129268Y187753D01*
Y185420D01*
X128102Y184254D01*
X124603D01*
X126935D02*
X129268Y181921D01*
X131601D02*
X133933D01*
X132767D01*
Y188919D01*
X131601Y187753D01*
X142097Y188919D02*
X139765Y187753D01*
X137432Y185420D01*
Y183087D01*
X138598Y181921D01*
X140931D01*
X142097Y183087D01*
Y184254D01*
X140931Y185420D01*
X137432D01*
X224479Y153813D02*
X217481D01*
Y157312D01*
X218647Y158478D01*
X220980D01*
X222146Y157312D01*
Y153813D01*
Y156145D02*
X224479Y158478D01*
Y160811D02*
Y163143D01*
Y161977D01*
X217481D01*
X218647Y160811D01*
X217481Y171307D02*
Y166642D01*
X220980D01*
X219814Y168975D01*
Y170141D01*
X220980Y171307D01*
X223313D01*
X224479Y170141D01*
Y167808D01*
X223313Y166642D01*
X177943Y110801D02*
Y117799D01*
X181442D01*
X182608Y116633D01*
Y114300D01*
X181442Y113134D01*
X177943D01*
X180275D02*
X182608Y110801D01*
X184941D02*
X187273D01*
X186107D01*
Y117799D01*
X184941Y116633D01*
X194271Y110801D02*
Y117799D01*
X190772Y114300D01*
X195437D01*
X224479Y123333D02*
X217481D01*
Y126832D01*
X218647Y127998D01*
X220980D01*
X222146Y126832D01*
Y123333D01*
Y125665D02*
X224479Y127998D01*
Y130330D02*
Y132663D01*
Y131497D01*
X217481D01*
X218647Y130330D01*
Y136162D02*
X217481Y137328D01*
Y139661D01*
X218647Y140827D01*
X219814D01*
X220980Y139661D01*
Y138495D01*
Y139661D01*
X222146Y140827D01*
X223313D01*
X224479Y139661D01*
Y137328D01*
X223313Y136162D01*
X151273Y286061D02*
Y293059D01*
X154772D01*
X155938Y291893D01*
Y289560D01*
X154772Y288394D01*
X151273D01*
X153605D02*
X155938Y286061D01*
X158271D02*
X160603D01*
X159437D01*
Y293059D01*
X158271Y291893D01*
X168767Y286061D02*
X164102D01*
X168767Y290726D01*
Y291893D01*
X167601Y293059D01*
X165268D01*
X164102Y291893D01*
X224479Y243879D02*
X217481D01*
Y247378D01*
X218647Y248544D01*
X220980D01*
X222146Y247378D01*
Y243879D01*
Y246212D02*
X224479Y248544D01*
Y250877D02*
Y253209D01*
Y252043D01*
X217481D01*
X218647Y250877D01*
X224479Y256708D02*
Y259041D01*
Y257875D01*
X217481D01*
X218647Y256708D01*
X124603Y199701D02*
Y206699D01*
X128102D01*
X129268Y205533D01*
Y203200D01*
X128102Y202034D01*
X124603D01*
X126935D02*
X129268Y199701D01*
X131601D02*
X133933D01*
X132767D01*
Y206699D01*
X131601Y205533D01*
X137432D02*
X138598Y206699D01*
X140931D01*
X142097Y205533D01*
Y200867D01*
X140931Y199701D01*
X138598D01*
X137432Y200867D01*
Y205533D01*
X224479Y215149D02*
X217481D01*
Y218647D01*
X218647Y219814D01*
X220980D01*
X222146Y218647D01*
Y215149D01*
Y217481D02*
X224479Y219814D01*
X223312Y222146D02*
X224479Y223313D01*
Y225645D01*
X223312Y226812D01*
X218647D01*
X217481Y225645D01*
Y223313D01*
X218647Y222146D01*
X219814D01*
X220980Y223313D01*
Y226812D01*
X314209Y141281D02*
Y148279D01*
X317707D01*
X318874Y147113D01*
Y144780D01*
X317707Y143614D01*
X314209D01*
X316541D02*
X318874Y141281D01*
X321206Y147113D02*
X322373Y148279D01*
X324705D01*
X325872Y147113D01*
Y145946D01*
X324705Y144780D01*
X325872Y143614D01*
Y142447D01*
X324705Y141281D01*
X322373D01*
X321206Y142447D01*
Y143614D01*
X322373Y144780D01*
X321206Y145946D01*
Y147113D01*
X322373Y144780D02*
X324705D01*
X410728Y67621D02*
Y74619D01*
X414227D01*
X415394Y73453D01*
Y71120D01*
X414227Y69954D01*
X410728D01*
X413061D02*
X415394Y67621D01*
X417726Y74619D02*
X422392D01*
Y73453D01*
X417726Y68787D01*
Y67621D01*
X425139Y88148D02*
X418141D01*
Y91647D01*
X419307Y92814D01*
X421640D01*
X422806Y91647D01*
Y88148D01*
Y90481D02*
X425139Y92814D01*
X418141Y99811D02*
X419307Y97479D01*
X421640Y95146D01*
X423973D01*
X425139Y96313D01*
Y98645D01*
X423973Y99811D01*
X422806D01*
X421640Y98645D01*
Y95146D01*
X314209Y171761D02*
Y178759D01*
X317707D01*
X318874Y177593D01*
Y175260D01*
X317707Y174094D01*
X314209D01*
X316541D02*
X318874Y171761D01*
X325872Y178759D02*
X321206D01*
Y175260D01*
X323539Y176426D01*
X324705D01*
X325872Y175260D01*
Y172927D01*
X324705Y171761D01*
X322373D01*
X321206Y172927D01*
X283729Y77781D02*
Y84779D01*
X287227D01*
X288394Y83613D01*
Y81280D01*
X287227Y80114D01*
X283729D01*
X286061D02*
X288394Y77781D01*
X294225D02*
Y84779D01*
X290726Y81280D01*
X295392D01*
X465779Y245629D02*
X458781D01*
Y249127D01*
X459947Y250294D01*
X462280D01*
X463446Y249127D01*
Y245629D01*
Y247961D02*
X465779Y250294D01*
X459947Y252626D02*
X458781Y253793D01*
Y256125D01*
X459947Y257292D01*
X461114D01*
X462280Y256125D01*
Y254959D01*
Y256125D01*
X463446Y257292D01*
X464613D01*
X465779Y256125D01*
Y253793D01*
X464613Y252626D01*
X517849Y232929D02*
X510851D01*
Y236427D01*
X512017Y237594D01*
X514350D01*
X515516Y236427D01*
Y232929D01*
Y235261D02*
X517849Y237594D01*
Y244592D02*
Y239926D01*
X513184Y244592D01*
X512017D01*
X510851Y243425D01*
Y241093D01*
X512017Y239926D01*
X429675Y192081D02*
Y199079D01*
X433174D01*
X434340Y197913D01*
Y195580D01*
X433174Y194414D01*
X429675D01*
X432007D02*
X434340Y192081D01*
X436673D02*
X439005D01*
X437839D01*
Y199079D01*
X436673Y197913D01*
X28770Y60001D02*
Y66999D01*
X31102Y64666D01*
X33435Y66999D01*
Y60001D01*
X35767Y66999D02*
Y60001D01*
Y63500D01*
X40433D01*
Y66999D01*
Y60001D01*
X46264D02*
Y66999D01*
X42765Y63500D01*
X47430D01*
X552010Y60001D02*
Y66999D01*
X554342Y64666D01*
X556675Y66999D01*
Y60001D01*
X559007Y66999D02*
Y60001D01*
Y63500D01*
X563673D01*
Y66999D01*
Y60001D01*
X566005Y65833D02*
X567172Y66999D01*
X569504D01*
X570670Y65833D01*
Y64666D01*
X569504Y63500D01*
X568338D01*
X569504D01*
X570670Y62334D01*
Y61167D01*
X569504Y60001D01*
X567172D01*
X566005Y61167D01*
X28770Y283521D02*
Y290519D01*
X31102Y288186D01*
X33435Y290519D01*
Y283521D01*
X35767Y290519D02*
Y283521D01*
Y287020D01*
X40433D01*
Y290519D01*
Y283521D01*
X47430D02*
X42765D01*
X47430Y288186D01*
Y289353D01*
X46264Y290519D01*
X43931D01*
X42765Y289353D01*
X577954Y201619D02*
X575621D01*
X576787D01*
Y195787D01*
X575621Y194621D01*
X574455D01*
X573288Y195787D01*
X584952Y194621D02*
X580286D01*
X584952Y199286D01*
Y200453D01*
X583785Y201619D01*
X581453D01*
X580286Y200453D01*
X321621Y94395D02*
Y89730D01*
X325120D01*
Y92062D01*
Y89730D01*
X328619D01*
X321621Y96727D02*
X328619D01*
Y100226D01*
X327453Y101393D01*
X326286D01*
X325120Y100226D01*
Y96727D01*
Y100226D01*
X323954Y101393D01*
X322787D01*
X321621Y100226D01*
Y96727D01*
X328619Y108390D02*
Y103725D01*
X323954Y108390D01*
X322787D01*
X321621Y107224D01*
Y104891D01*
X322787Y103725D01*
X449891Y227641D02*
Y222976D01*
X453390D01*
Y225308D01*
Y222976D01*
X456889D01*
X449891Y229974D02*
X456889D01*
Y233473D01*
X455723Y234639D01*
X454556D01*
X453390Y233473D01*
Y229974D01*
Y233473D01*
X452224Y234639D01*
X451057D01*
X449891Y233473D01*
Y229974D01*
X456889Y236971D02*
Y239304D01*
Y238138D01*
X449891D01*
X451057Y236971D01*
X265949Y133039D02*
Y126041D01*
X269447D01*
X270614Y127207D01*
Y131873D01*
X269447Y133039D01*
X265949D01*
X276445Y126041D02*
Y133039D01*
X272946Y129540D01*
X277612D01*
X283729Y66999D02*
Y60001D01*
X287227D01*
X288394Y61167D01*
Y65833D01*
X287227Y66999D01*
X283729D01*
X290726Y65833D02*
X291893Y66999D01*
X294225D01*
X295392Y65833D01*
Y64666D01*
X294225Y63500D01*
X293059D01*
X294225D01*
X295392Y62334D01*
Y61167D01*
X294225Y60001D01*
X291893D01*
X290726Y61167D01*
X456241Y207528D02*
X463239D01*
Y211027D01*
X462072Y212194D01*
X457407D01*
X456241Y211027D01*
Y207528D01*
X463239Y219191D02*
Y214526D01*
X458574Y219191D01*
X457407D01*
X456241Y218025D01*
Y215693D01*
X457407Y214526D01*
X512121Y208695D02*
X519119D01*
Y212194D01*
X517953Y213360D01*
X513287D01*
X512121Y212194D01*
Y208695D01*
X519119Y215693D02*
Y218025D01*
Y216859D01*
X512121D01*
X513287Y215693D01*
X73388Y83613D02*
X72222Y84779D01*
X69889D01*
X68723Y83613D01*
Y78947D01*
X69889Y77781D01*
X72222D01*
X73388Y78947D01*
X75721Y77781D02*
X78053D01*
X76887D01*
Y84779D01*
X75721Y83613D01*
X86217Y84779D02*
X81552D01*
Y81280D01*
X83885Y82446D01*
X85051D01*
X86217Y81280D01*
Y78947D01*
X85051Y77781D01*
X82718D01*
X81552Y78947D01*
X122127Y34018D02*
X120961Y32852D01*
Y30519D01*
X122127Y29353D01*
X126793D01*
X127959Y30519D01*
Y32852D01*
X126793Y34018D01*
X127959Y36351D02*
Y38683D01*
Y37517D01*
X120961D01*
X122127Y36351D01*
X127959Y45681D02*
X120961D01*
X124460Y42182D01*
Y46847D01*
X73388Y182673D02*
X72222Y183839D01*
X69889D01*
X68723Y182673D01*
Y178007D01*
X69889Y176841D01*
X72222D01*
X73388Y178007D01*
X75721Y176841D02*
X78053D01*
X76887D01*
Y183839D01*
X75721Y182673D01*
X81552D02*
X82718Y183839D01*
X85051D01*
X86217Y182673D01*
Y181506D01*
X85051Y180340D01*
X83885D01*
X85051D01*
X86217Y179174D01*
Y178007D01*
X85051Y176841D01*
X82718D01*
X81552Y178007D01*
X122127Y120378D02*
X120961Y119212D01*
Y116879D01*
X122127Y115713D01*
X126793D01*
X127959Y116879D01*
Y119212D01*
X126793Y120378D01*
X127959Y122711D02*
Y125043D01*
Y123877D01*
X120961D01*
X122127Y122711D01*
X127959Y133207D02*
Y128542D01*
X123294Y133207D01*
X122127D01*
X120961Y132041D01*
Y129708D01*
X122127Y128542D01*
X101224Y274113D02*
X100058Y275279D01*
X97725D01*
X96559Y274113D01*
Y269447D01*
X97725Y268281D01*
X100058D01*
X101224Y269447D01*
X103557Y268281D02*
X105890D01*
X104723D01*
Y275279D01*
X103557Y274113D01*
X109388Y268281D02*
X111721D01*
X110555D01*
Y275279D01*
X109388Y274113D01*
X81487Y211818D02*
X80321Y210652D01*
Y208319D01*
X81487Y207153D01*
X86153D01*
X87319Y208319D01*
Y210652D01*
X86153Y211818D01*
X87319Y214151D02*
Y216483D01*
Y215317D01*
X80321D01*
X81487Y214151D01*
Y219982D02*
X80321Y221148D01*
Y223481D01*
X81487Y224647D01*
X86153D01*
X87319Y223481D01*
Y221148D01*
X86153Y219982D01*
X81487D01*
X453494Y73453D02*
X452327Y74619D01*
X449995D01*
X448829Y73453D01*
Y68787D01*
X449995Y67621D01*
X452327D01*
X453494Y68787D01*
X455826D02*
X456993Y67621D01*
X459325D01*
X460491Y68787D01*
Y73453D01*
X459325Y74619D01*
X456993D01*
X455826Y73453D01*
Y72286D01*
X456993Y71120D01*
X460491D01*
X377294Y73453D02*
X376127Y74619D01*
X373795D01*
X372629Y73453D01*
Y68787D01*
X373795Y67621D01*
X376127D01*
X377294Y68787D01*
X379626Y73453D02*
X380793Y74619D01*
X383125D01*
X384291Y73453D01*
Y72286D01*
X383125Y71120D01*
X384291Y69954D01*
Y68787D01*
X383125Y67621D01*
X380793D01*
X379626Y68787D01*
Y69954D01*
X380793Y71120D01*
X379626Y72286D01*
Y73453D01*
X380793Y71120D02*
X383125D01*
X318874Y162353D02*
X317707Y163519D01*
X315375D01*
X314209Y162353D01*
Y157687D01*
X315375Y156521D01*
X317707D01*
X318874Y157687D01*
X321206Y163519D02*
X325872D01*
Y162353D01*
X321206Y157687D01*
Y156521D01*
X392534Y116633D02*
X391367Y117799D01*
X389035D01*
X387868Y116633D01*
Y111967D01*
X389035Y110801D01*
X391367D01*
X392534Y111967D01*
X399532Y117799D02*
X397199Y116633D01*
X394866Y114300D01*
Y111967D01*
X396033Y110801D01*
X398365D01*
X399532Y111967D01*
Y113134D01*
X398365Y114300D01*
X394866D01*
X377294Y116633D02*
X376127Y117799D01*
X373795D01*
X372629Y116633D01*
Y111967D01*
X373795Y110801D01*
X376127D01*
X377294Y111967D01*
X384291Y117799D02*
X379626D01*
Y114300D01*
X381959Y115466D01*
X383125D01*
X384291Y114300D01*
Y111967D01*
X383125Y110801D01*
X380793D01*
X379626Y111967D01*
X362054Y117903D02*
X360887Y119069D01*
X358555D01*
X357388Y117903D01*
Y113237D01*
X358555Y112071D01*
X360887D01*
X362054Y113237D01*
X367885Y112071D02*
Y119069D01*
X364386Y115570D01*
X369052D01*
X400154Y256333D02*
X398987Y257499D01*
X396655D01*
X395489Y256333D01*
Y251667D01*
X396655Y250501D01*
X398987D01*
X400154Y251667D01*
X402486Y256333D02*
X403653Y257499D01*
X405985D01*
X407151Y256333D01*
Y255166D01*
X405985Y254000D01*
X404819D01*
X405985D01*
X407151Y252834D01*
Y251667D01*
X405985Y250501D01*
X403653D01*
X402486Y251667D01*
X410314Y210613D02*
X409147Y211779D01*
X406815D01*
X405648Y210613D01*
Y205947D01*
X406815Y204781D01*
X409147D01*
X410314Y205947D01*
X417312Y204781D02*
X412646D01*
X417312Y209446D01*
Y210613D01*
X416145Y211779D01*
X413813D01*
X412646Y210613D01*
X386080Y256333D02*
X384914Y257499D01*
X382581D01*
X381415Y256333D01*
Y251667D01*
X382581Y250501D01*
X384914D01*
X386080Y251667D01*
X388413Y250501D02*
X390745D01*
X389579D01*
Y257499D01*
X388413Y256333D01*
M02*
