G04*
G04 #@! TF.GenerationSoftware,Altium Limited,Altium Designer,21.7.1 (17)*
G04*
G04 Layer_Color=65535*
%FSLAX44Y44*%
%MOMM*%
G71*
G04*
G04 #@! TF.SameCoordinates,13432A2F-5693-4F9D-A56B-2ECE4EB69D10*
G04*
G04*
G04 #@! TF.FilePolarity,Positive*
G04*
G01*
G75*
%ADD10C,0.2540*%
%ADD11C,0.2000*%
%ADD12C,0.3000*%
%ADD13C,0.1400*%
D10*
X278770Y151080D02*
G03*
X278770Y151080I-2000J0D01*
G01*
X216180Y120750D02*
G03*
X216180Y120750I-2000J0D01*
G01*
X115120Y194260D02*
G03*
X115120Y194260I-2000J0D01*
G01*
X202610Y94070D02*
G03*
X202610Y94070I-2000J0D01*
G01*
X88900Y261620D02*
Y287020D01*
X246380D01*
Y261620D02*
Y287020D01*
X88900Y261620D02*
X246380D01*
X302580Y274060D02*
X388580D01*
X302580Y177060D02*
X388580D01*
X302580D02*
Y274060D01*
X388580Y177060D02*
Y274060D01*
X82550Y283210D02*
Y286542D01*
Y284876D01*
X72553D01*
X74219Y283210D01*
X328040Y165600D02*
Y168932D01*
Y167266D01*
X318043D01*
X319709Y165600D01*
D11*
X75100Y256540D02*
G03*
X75100Y256540I-37000J0D01*
G01*
Y38100D02*
G03*
X75100Y38100I-37000J0D01*
G01*
X373550D02*
G03*
X373550Y38100I-37000J0D01*
G01*
X358110Y160810D02*
X386110D01*
X380110Y100810D02*
X386110Y106810D01*
X358110D02*
X364110Y100810D01*
X358110Y106810D02*
X364110Y100810D01*
X358110Y106810D02*
Y160810D01*
X364110Y100810D02*
X380110D01*
X386110Y106810D01*
Y160810D01*
X77950Y17750D02*
Y45750D01*
X131950D02*
X137950Y39750D01*
X131950Y17750D02*
X137950Y23750D01*
X131950Y17750D02*
X137950Y23750D01*
X77950Y17750D02*
X131950D01*
X137950Y23750D02*
Y39750D01*
X131950Y45750D02*
X137950Y39750D01*
X77950Y45750D02*
X131950D01*
X5050Y207800D02*
X33050D01*
X27050Y147800D02*
X33050Y153800D01*
X5050D02*
X11050Y147800D01*
X5050Y153800D02*
X11050Y147800D01*
X5050Y153800D02*
Y207800D01*
X11050Y147800D02*
X27050D01*
X33050Y153800D01*
Y207800D01*
X298770Y157080D02*
X338770D01*
Y106680D02*
Y157080D01*
X298770Y106680D02*
Y157080D01*
Y106680D02*
X338770D01*
X154180Y114200D02*
Y203200D01*
X186180D01*
Y114200D02*
Y203200D01*
X154180Y114200D02*
X186180D01*
X110490Y214630D02*
X123190D01*
Y186690D02*
Y214630D01*
X110490Y186690D02*
X123190D01*
X110490D02*
Y214630D01*
X51120Y149860D02*
X91120D01*
Y200260D01*
X51120Y149860D02*
Y200260D01*
X91120D01*
X110490Y184150D02*
X123190D01*
Y156210D02*
Y184150D01*
X110490Y156210D02*
X123190D01*
X110490D02*
Y184150D01*
X77230Y77470D02*
Y90170D01*
Y77470D02*
X105170D01*
Y90170D01*
X77230D02*
X105170D01*
X41790Y95250D02*
Y107950D01*
Y95250D02*
X69730D01*
Y107950D01*
X41790D02*
X69730D01*
X41790Y77470D02*
Y90170D01*
Y77470D02*
X69730D01*
Y90170D01*
X41790D02*
X69730D01*
X77230Y95250D02*
Y107950D01*
Y95250D02*
X105170D01*
Y107950D01*
X77230D02*
X105170D01*
X36710Y77465D02*
Y90165D01*
X8770D02*
X36710D01*
X8770Y77465D02*
Y90165D01*
Y77465D02*
X36710D01*
Y95245D02*
Y107945D01*
X8770D02*
X36710D01*
X8770Y95245D02*
Y107945D01*
Y95245D02*
X36710D01*
X88900Y133350D02*
Y146050D01*
X60960Y133350D02*
X88900D01*
X60960D02*
Y146050D01*
X88900D01*
X36830Y130805D02*
Y143505D01*
X8890Y130805D02*
X36830D01*
X8890D02*
Y143505D01*
X36830D01*
X36560Y113025D02*
Y125725D01*
X8620D02*
X36560D01*
X8620Y113025D02*
Y125725D01*
Y113025D02*
X36560D01*
X77080Y113030D02*
Y125730D01*
Y113030D02*
X105020D01*
Y125730D01*
X77080D02*
X105020D01*
X41640Y113030D02*
Y125730D01*
Y113030D02*
X69580D01*
Y125730D01*
X41640D02*
X69580D01*
X90170Y204470D02*
Y217170D01*
X62230Y204470D02*
X90170D01*
X62230D02*
Y217170D01*
X90170D01*
X304800Y161290D02*
Y173990D01*
Y161290D02*
X332740D01*
Y173990D01*
X304800D02*
X332740D01*
X359410Y83820D02*
Y96520D01*
Y83820D02*
X387350D01*
Y96520D01*
X359410D02*
X387350D01*
X303530Y90170D02*
Y102870D01*
Y90170D02*
X331470D01*
Y102870D01*
X303530D02*
X331470D01*
X266700Y166370D02*
X279400D01*
X266700Y138430D02*
Y166370D01*
Y138430D02*
X279400D01*
Y166370D01*
X266700Y135890D02*
X279400D01*
X266700Y107950D02*
Y135890D01*
Y107950D02*
X279400D01*
Y135890D01*
X140970Y22860D02*
X153670D01*
Y50800D01*
X140970D02*
X153670D01*
X140970Y22860D02*
Y50800D01*
X224790Y165100D02*
X237490D01*
X224790Y137160D02*
Y165100D01*
Y137160D02*
X237490D01*
Y165100D01*
X284480Y231140D02*
X287020D01*
X284480Y215900D02*
X287020D01*
X284480D02*
Y231140D01*
X254000Y215900D02*
X284480D01*
X254000D02*
Y231140D01*
X284480D01*
X287020Y215900D02*
Y231140D01*
X273670Y250620D02*
Y272620D01*
Y250620D02*
X287670D01*
Y272620D01*
X273670D02*
X287670D01*
X259080Y234950D02*
Y247650D01*
Y234950D02*
X287020D01*
Y247650D01*
X259080D02*
X287020D01*
X156210Y251460D02*
Y254000D01*
X171450Y251460D02*
Y254000D01*
X156210Y251460D02*
X171450D01*
Y220980D02*
Y251460D01*
X156210Y220980D02*
X171450D01*
X156210D02*
Y251460D01*
Y254000D02*
X171450D01*
X175260Y223520D02*
X187960D01*
Y251460D01*
X175260D02*
X187960D01*
X175260Y223520D02*
Y251460D01*
X139700D02*
X152400D01*
X139700Y223520D02*
Y251460D01*
Y223520D02*
X152400D01*
Y251460D01*
X200660Y223520D02*
X213360D01*
Y251460D01*
X200660D02*
X213360D01*
X200660Y223520D02*
Y251460D01*
X217170D02*
Y254000D01*
X232410Y251460D02*
Y254000D01*
X217170Y251460D02*
X232410D01*
Y220980D02*
Y251460D01*
X217170Y220980D02*
X232410D01*
X217170D02*
Y251460D01*
Y254000D02*
X232410D01*
X267970Y67310D02*
Y102870D01*
X247650D02*
X267970D01*
X247650Y67310D02*
Y102870D01*
Y67310D02*
X267970D01*
X232410Y74930D02*
X245110D01*
Y102870D01*
X232410D02*
X245110D01*
X232410Y74930D02*
Y102870D01*
X217170Y74930D02*
X229870D01*
Y102870D01*
X217170D02*
X229870D01*
X217170Y74930D02*
Y102870D01*
X239920Y122240D02*
Y166240D01*
X257920Y122240D02*
Y166240D01*
X239920D02*
X257920D01*
X239920Y122240D02*
X245920Y116240D01*
X251920D02*
X257920Y122240D01*
X209550Y137160D02*
Y165100D01*
X222250D01*
Y137160D02*
Y165100D01*
X209550Y137160D02*
X222250D01*
X206610Y32070D02*
Y72070D01*
X156210Y32070D02*
X206610D01*
X156210Y72070D02*
X206610D01*
X156210Y32070D02*
Y72070D01*
X153670Y55880D02*
Y83820D01*
X140970Y55880D02*
X153670D01*
X140970D02*
Y83820D01*
X153670D01*
X149860Y96520D02*
X177800D01*
X149860D02*
Y109220D01*
X177800D01*
Y96520D02*
Y109220D01*
X222250Y39370D02*
Y67310D01*
X209550Y39370D02*
X222250D01*
X209550D02*
Y67310D01*
X222250D01*
X181610Y96520D02*
X209550D01*
X181610D02*
Y109220D01*
X209550D01*
Y96520D02*
Y109220D01*
X134620Y223400D02*
Y251340D01*
X121920Y223400D02*
X134620D01*
X121920D02*
Y251340D01*
X134620D01*
D12*
X245920Y116240D02*
X251920D01*
X208740Y16266D02*
Y4270D01*
X214738D01*
X216737Y6269D01*
Y8269D01*
X214738Y10268D01*
X208740D01*
X214738D01*
X216737Y12267D01*
Y14267D01*
X214738Y16266D01*
X208740D01*
X220736Y4270D02*
Y16266D01*
X226734D01*
X228734Y14267D01*
Y10268D01*
X226734Y8269D01*
X220736D01*
X224735D02*
X228734Y4270D01*
X232732D02*
Y12267D01*
X236731Y16266D01*
X240730Y12267D01*
Y4270D01*
Y10268D01*
X232732D01*
X244728Y16266D02*
X248727D01*
X246728D01*
Y4270D01*
X244728D01*
X248727D01*
X254725D02*
Y16266D01*
X262722Y4270D01*
Y16266D01*
X266721Y4270D02*
Y6269D01*
X268721D01*
Y4270D01*
X266721D01*
X276718Y16266D02*
Y4270D01*
X282716D01*
X284715Y6269D01*
Y14267D01*
X282716Y16266D01*
X276718D01*
X288714D02*
Y4270D01*
X296712D01*
X300710Y16266D02*
Y4270D01*
X308708D01*
D13*
X79551Y273050D02*
Y271051D01*
Y272050D01*
X84549D01*
X85549Y271051D01*
Y270051D01*
X84549Y269051D01*
X85549Y275049D02*
Y277049D01*
Y276049D01*
X79551D01*
X80551Y275049D01*
X341712Y104599D02*
Y99601D01*
X342711Y98601D01*
X344711D01*
X345710Y99601D01*
Y104599D01*
X350709Y98601D02*
Y104599D01*
X347710Y101600D01*
X351708D01*
X104501Y53999D02*
X103502Y54999D01*
X101502D01*
X100503Y53999D01*
Y50001D01*
X101502Y49001D01*
X103502D01*
X104501Y50001D01*
X106501Y49001D02*
X108500D01*
X107500D01*
Y54999D01*
X106501Y53999D01*
X111499D02*
X112499Y54999D01*
X114498D01*
X115498Y53999D01*
Y50001D01*
X114498Y49001D01*
X112499D01*
X111499Y50001D01*
Y53999D01*
X19501Y215999D02*
X18501Y216999D01*
X16502D01*
X15503Y215999D01*
Y212001D01*
X16502Y211001D01*
X18501D01*
X19501Y212001D01*
X21500Y211001D02*
X23500D01*
X22500D01*
Y216999D01*
X21500Y215999D01*
X30498Y211001D02*
X26499D01*
X30498Y215000D01*
Y215999D01*
X29498Y216999D01*
X27499D01*
X26499Y215999D01*
X373691Y169639D02*
X372691Y170639D01*
X370692D01*
X369692Y169639D01*
Y165641D01*
X370692Y164641D01*
X372691D01*
X373691Y165641D01*
X375690Y164641D02*
X377690D01*
X376690D01*
Y170639D01*
X375690Y169639D01*
X383688Y164641D02*
Y170639D01*
X380689Y167640D01*
X384688D01*
X44532Y211279D02*
Y206281D01*
X45531Y205281D01*
X47531D01*
X48530Y206281D01*
Y211279D01*
X50530Y210279D02*
X51529Y211279D01*
X53529D01*
X54528Y210279D01*
Y209280D01*
X53529Y208280D01*
X52529D01*
X53529D01*
X54528Y207280D01*
Y206281D01*
X53529Y205281D01*
X51529D01*
X50530Y206281D01*
X157562Y13159D02*
Y8161D01*
X158561Y7161D01*
X160561D01*
X161560Y8161D01*
Y13159D01*
X167558Y7161D02*
X163560D01*
X167558Y11160D01*
Y12159D01*
X166559Y13159D01*
X164559D01*
X163560Y12159D01*
X142051Y210009D02*
Y205011D01*
X143051Y204011D01*
X145050D01*
X146050Y205011D01*
Y210009D01*
X148049Y204011D02*
X150049D01*
X149049D01*
Y210009D01*
X148049Y209009D01*
X7398Y111383D02*
X1400D01*
Y114382D01*
X2400Y115381D01*
X4399D01*
X5399Y114382D01*
Y111383D01*
Y113382D02*
X7398Y115381D01*
Y121379D02*
Y117381D01*
X3399Y121379D01*
X2400D01*
X1400Y120380D01*
Y118380D01*
X2400Y117381D01*
X6398Y123379D02*
X7398Y124378D01*
Y126378D01*
X6398Y127377D01*
X2400D01*
X1400Y126378D01*
Y124378D01*
X2400Y123379D01*
X3399D01*
X4399Y124378D01*
Y127377D01*
X7398Y93603D02*
X1400D01*
Y96602D01*
X2400Y97601D01*
X4399D01*
X5399Y96602D01*
Y93603D01*
Y95602D02*
X7398Y97601D01*
Y103599D02*
Y99601D01*
X3399Y103599D01*
X2400D01*
X1400Y102600D01*
Y100600D01*
X2400Y99601D01*
Y105599D02*
X1400Y106598D01*
Y108598D01*
X2400Y109597D01*
X3399D01*
X4399Y108598D01*
X5399Y109597D01*
X6398D01*
X7398Y108598D01*
Y106598D01*
X6398Y105599D01*
X5399D01*
X4399Y106598D01*
X3399Y105599D01*
X2400D01*
X4399Y106598D02*
Y108598D01*
X7398Y74553D02*
X1400D01*
Y77552D01*
X2400Y78551D01*
X4399D01*
X5399Y77552D01*
Y74553D01*
Y76552D02*
X7398Y78551D01*
Y84549D02*
Y80551D01*
X3399Y84549D01*
X2400D01*
X1400Y83550D01*
Y81550D01*
X2400Y80551D01*
X1400Y86549D02*
Y90547D01*
X2400D01*
X6398Y86549D01*
X7398D01*
X108843Y116381D02*
Y122379D01*
X111842D01*
X112841Y121379D01*
Y119380D01*
X111842Y118380D01*
X108843D01*
X110842D02*
X112841Y116381D01*
X118839D02*
X114841D01*
X118839Y120380D01*
Y121379D01*
X117840Y122379D01*
X115840D01*
X114841Y121379D01*
X124837Y122379D02*
X122838Y121379D01*
X120839Y119380D01*
Y117381D01*
X121838Y116381D01*
X123838D01*
X124837Y117381D01*
Y118380D01*
X123838Y119380D01*
X120839D01*
X41533Y132891D02*
Y138889D01*
X44532D01*
X45531Y137889D01*
Y135890D01*
X44532Y134890D01*
X41533D01*
X43532D02*
X45531Y132891D01*
X51529D02*
X47531D01*
X51529Y136890D01*
Y137889D01*
X50530Y138889D01*
X48530D01*
X47531Y137889D01*
X57527Y138889D02*
X53529D01*
Y135890D01*
X55528Y136890D01*
X56528D01*
X57527Y135890D01*
Y133891D01*
X56528Y132891D01*
X54528D01*
X53529Y133891D01*
X108843Y98601D02*
Y104599D01*
X111842D01*
X112841Y103599D01*
Y101600D01*
X111842Y100600D01*
X108843D01*
X110842D02*
X112841Y98601D01*
X118839D02*
X114841D01*
X118839Y102600D01*
Y103599D01*
X117840Y104599D01*
X115840D01*
X114841Y103599D01*
X123838Y98601D02*
Y104599D01*
X120839Y101600D01*
X124837D01*
X47883Y98601D02*
Y104599D01*
X50882D01*
X51881Y103599D01*
Y101600D01*
X50882Y100600D01*
X47883D01*
X49882D02*
X51881Y98601D01*
X57879D02*
X53881D01*
X57879Y102600D01*
Y103599D01*
X56880Y104599D01*
X54880D01*
X53881Y103599D01*
X59879D02*
X60878Y104599D01*
X62878D01*
X63877Y103599D01*
Y102600D01*
X62878Y101600D01*
X61878D01*
X62878D01*
X63877Y100600D01*
Y99601D01*
X62878Y98601D01*
X60878D01*
X59879Y99601D01*
X108843Y80821D02*
Y86819D01*
X111842D01*
X112841Y85819D01*
Y83820D01*
X111842Y82820D01*
X108843D01*
X110842D02*
X112841Y80821D01*
X118839D02*
X114841D01*
X118839Y84820D01*
Y85819D01*
X117840Y86819D01*
X115840D01*
X114841Y85819D01*
X124837Y80821D02*
X120839D01*
X124837Y84820D01*
Y85819D01*
X123838Y86819D01*
X121838D01*
X120839Y85819D01*
X67002Y67001D02*
Y72999D01*
X70001D01*
X71001Y71999D01*
Y70000D01*
X70001Y69000D01*
X67002D01*
X69002D02*
X71001Y67001D01*
X76999D02*
X73000D01*
X76999Y71000D01*
Y71999D01*
X75999Y72999D01*
X74000D01*
X73000Y71999D01*
X78998Y67001D02*
X80998D01*
X79998D01*
Y72999D01*
X78998Y71999D01*
X304003Y81001D02*
Y86999D01*
X307002D01*
X308001Y85999D01*
Y84000D01*
X307002Y83000D01*
X304003D01*
X306002D02*
X308001Y81001D01*
X313999D02*
X310001D01*
X313999Y85000D01*
Y85999D01*
X313000Y86999D01*
X311000D01*
X310001Y85999D01*
X315999D02*
X316998Y86999D01*
X318998D01*
X319997Y85999D01*
Y82001D01*
X318998Y81001D01*
X316998D01*
X315999Y82001D01*
Y85999D01*
X288749Y114423D02*
X282751D01*
Y117422D01*
X283751Y118421D01*
X285750D01*
X286750Y117422D01*
Y114423D01*
Y116422D02*
X288749Y118421D01*
Y120421D02*
Y122420D01*
Y121420D01*
X282751D01*
X283751Y120421D01*
X287749Y125419D02*
X288749Y126419D01*
Y128418D01*
X287749Y129418D01*
X283751D01*
X282751Y128418D01*
Y126419D01*
X283751Y125419D01*
X284750D01*
X285750Y126419D01*
Y129418D01*
X300179Y160142D02*
X294181D01*
Y163141D01*
X295181Y164141D01*
X297180D01*
X298180Y163141D01*
Y160142D01*
Y162142D02*
X300179Y164141D01*
Y166140D02*
Y168140D01*
Y167140D01*
X294181D01*
X295181Y166140D01*
Y171139D02*
X294181Y172139D01*
Y174138D01*
X295181Y175138D01*
X296180D01*
X297180Y174138D01*
X298180Y175138D01*
X299179D01*
X300179Y174138D01*
Y172139D01*
X299179Y171139D01*
X298180D01*
X297180Y172139D01*
X296180Y171139D01*
X295181D01*
X297180Y172139D02*
Y174138D01*
X288749Y143632D02*
X282751D01*
Y146631D01*
X283751Y147631D01*
X285750D01*
X286750Y146631D01*
Y143632D01*
Y145632D02*
X288749Y147631D01*
Y149630D02*
Y151630D01*
Y150630D01*
X282751D01*
X283751Y149630D01*
X282751Y154629D02*
Y158628D01*
X283751D01*
X287749Y154629D01*
X288749D01*
X92832Y136701D02*
Y142699D01*
X95831D01*
X96831Y141699D01*
Y139700D01*
X95831Y138700D01*
X92832D01*
X94832D02*
X96831Y136701D01*
X98830D02*
X100830D01*
X99830D01*
Y142699D01*
X98830Y141699D01*
X107828Y142699D02*
X105828Y141699D01*
X103829Y139700D01*
Y137701D01*
X104829Y136701D01*
X106828D01*
X107828Y137701D01*
Y138700D01*
X106828Y139700D01*
X103829D01*
X132539Y177677D02*
X126541D01*
Y174678D01*
X127541Y173679D01*
X129540D01*
X130540Y174678D01*
Y177677D01*
Y175678D02*
X132539Y173679D01*
Y171679D02*
Y169680D01*
Y170680D01*
X126541D01*
X127541Y171679D01*
X126541Y162682D02*
Y166681D01*
X129540D01*
X128540Y164682D01*
Y163682D01*
X129540Y162682D01*
X131539D01*
X132539Y163682D01*
Y165681D01*
X131539Y166681D01*
X68703Y220521D02*
Y226519D01*
X71701D01*
X72701Y225519D01*
Y223520D01*
X71701Y222520D01*
X68703D01*
X70702D02*
X72701Y220521D01*
X74700D02*
X76700D01*
X75700D01*
Y226519D01*
X74700Y225519D01*
X82698Y220521D02*
Y226519D01*
X79699Y223520D01*
X83698D01*
X132539Y208158D02*
X126541D01*
Y205159D01*
X127541Y204159D01*
X129540D01*
X130540Y205159D01*
Y208158D01*
Y206158D02*
X132539Y204159D01*
Y202160D02*
Y200160D01*
Y201160D01*
X126541D01*
X127541Y202160D01*
Y197161D02*
X126541Y196161D01*
Y194162D01*
X127541Y193162D01*
X128540D01*
X129540Y194162D01*
Y195162D01*
Y194162D01*
X130540Y193162D01*
X131539D01*
X132539Y194162D01*
Y196161D01*
X131539Y197161D01*
X141503Y87001D02*
Y92999D01*
X144501D01*
X145501Y91999D01*
Y90000D01*
X144501Y89000D01*
X141503D01*
X143502D02*
X145501Y87001D01*
X147500D02*
X149500D01*
X148500D01*
Y92999D01*
X147500Y91999D01*
X156498Y87001D02*
X152499D01*
X156498Y91000D01*
Y91999D01*
X155498Y92999D01*
X153498D01*
X152499Y91999D01*
X162502Y87001D02*
Y92999D01*
X165501D01*
X166501Y91999D01*
Y90000D01*
X165501Y89000D01*
X162502D01*
X164501D02*
X166501Y87001D01*
X168500D02*
X170499D01*
X169500D01*
Y92999D01*
X168500Y91999D01*
X173498Y87001D02*
X175498D01*
X174498D01*
Y92999D01*
X173498Y91999D01*
X231599Y47112D02*
X225601D01*
Y50111D01*
X226601Y51111D01*
X228600D01*
X229600Y50111D01*
Y47112D01*
Y49112D02*
X231599Y51111D01*
Y53110D02*
Y55110D01*
Y54110D01*
X225601D01*
X226601Y53110D01*
Y58109D02*
X225601Y59109D01*
Y61108D01*
X226601Y62108D01*
X230599D01*
X231599Y61108D01*
Y59109D01*
X230599Y58109D01*
X226601D01*
X184002Y87001D02*
Y92999D01*
X187001D01*
X188000Y91999D01*
Y90000D01*
X187001Y89000D01*
X184002D01*
X186001D02*
X188000Y87001D01*
X190000Y88001D02*
X190999Y87001D01*
X192999D01*
X193998Y88001D01*
Y91999D01*
X192999Y92999D01*
X190999D01*
X190000Y91999D01*
Y91000D01*
X190999Y90000D01*
X193998D01*
X118569Y233762D02*
X112571D01*
Y236761D01*
X113571Y237760D01*
X115570D01*
X116570Y236761D01*
Y233762D01*
Y235761D02*
X118569Y237760D01*
X113571Y239760D02*
X112571Y240759D01*
Y242759D01*
X113571Y243758D01*
X114570D01*
X115570Y242759D01*
X116570Y243758D01*
X117569D01*
X118569Y242759D01*
Y240759D01*
X117569Y239760D01*
X116570D01*
X115570Y240759D01*
X114570Y239760D01*
X113571D01*
X115570Y240759D02*
Y242759D01*
X226142Y168451D02*
Y174449D01*
X229141D01*
X230140Y173449D01*
Y171450D01*
X229141Y170450D01*
X226142D01*
X228141D02*
X230140Y168451D01*
X236138Y174449D02*
X232140D01*
Y171450D01*
X234139Y172450D01*
X235139D01*
X236138Y171450D01*
Y169451D01*
X235139Y168451D01*
X233139D01*
X232140Y169451D01*
X296369Y236302D02*
X290371D01*
Y239301D01*
X291371Y240300D01*
X293370D01*
X294370Y239301D01*
Y236302D01*
Y238301D02*
X296369Y240300D01*
Y245299D02*
X290371D01*
X293370Y242300D01*
Y246298D01*
X176612Y214171D02*
Y220169D01*
X179611D01*
X180610Y219169D01*
Y217170D01*
X179611Y216170D01*
X176612D01*
X178611D02*
X180610Y214171D01*
X182610Y219169D02*
X183609Y220169D01*
X185609D01*
X186608Y219169D01*
Y218170D01*
X185609Y217170D01*
X184609D01*
X185609D01*
X186608Y216170D01*
Y215171D01*
X185609Y214171D01*
X183609D01*
X182610Y215171D01*
X202012Y214171D02*
Y220169D01*
X205011D01*
X206010Y219169D01*
Y217170D01*
X205011Y216170D01*
X202012D01*
X204011D02*
X206010Y214171D01*
X212008D02*
X208010D01*
X212008Y218170D01*
Y219169D01*
X211009Y220169D01*
X209009D01*
X208010Y219169D01*
X142051Y214171D02*
Y220169D01*
X145050D01*
X146050Y219169D01*
Y217170D01*
X145050Y216170D01*
X142051D01*
X144051D02*
X146050Y214171D01*
X148049D02*
X150049D01*
X149049D01*
Y220169D01*
X148049Y219169D01*
X30103Y60501D02*
Y66499D01*
X32102Y64500D01*
X34101Y66499D01*
Y60501D01*
X36101Y66499D02*
Y60501D01*
Y63500D01*
X40099D01*
Y66499D01*
Y60501D01*
X45098D02*
Y66499D01*
X42099Y63500D01*
X46097D01*
X328553Y60501D02*
Y66499D01*
X330552Y64500D01*
X332551Y66499D01*
Y60501D01*
X334551Y66499D02*
Y60501D01*
Y63500D01*
X338549D01*
Y66499D01*
Y60501D01*
X340549Y65499D02*
X341548Y66499D01*
X343548D01*
X344547Y65499D01*
Y64500D01*
X343548Y63500D01*
X342548D01*
X343548D01*
X344547Y62500D01*
Y61501D01*
X343548Y60501D01*
X341548D01*
X340549Y61501D01*
X30103Y278941D02*
Y284939D01*
X32102Y282940D01*
X34101Y284939D01*
Y278941D01*
X36101Y284939D02*
Y278941D01*
Y281940D01*
X40099D01*
Y284939D01*
Y278941D01*
X46097D02*
X42099D01*
X46097Y282940D01*
Y283939D01*
X45098Y284939D01*
X43098D01*
X42099Y283939D01*
X377460Y284539D02*
X375461D01*
X376461D01*
Y279541D01*
X375461Y278541D01*
X374461D01*
X373462Y279541D01*
X383458Y278541D02*
X379460D01*
X383458Y282540D01*
Y283539D01*
X382459Y284539D01*
X380459D01*
X379460Y283539D01*
X277319Y89089D02*
Y93087D01*
X274320D01*
Y91088D01*
Y93087D01*
X271321D01*
X277319Y87089D02*
X271321D01*
Y84090D01*
X272321Y83091D01*
X273320D01*
X274320Y84090D01*
Y87089D01*
Y84090D01*
X275320Y83091D01*
X276319D01*
X277319Y84090D01*
Y87089D01*
X271321Y77093D02*
Y81091D01*
X275320Y77093D01*
X276319D01*
X277319Y78092D01*
Y80092D01*
X276319Y81091D01*
X290371Y261620D02*
Y257621D01*
X293370D01*
Y259621D01*
Y257621D01*
X296369D01*
Y263619D02*
Y265619D01*
Y264619D01*
X290371D01*
X291371Y263619D01*
X244002Y174999D02*
Y169001D01*
X247001D01*
X248000Y170001D01*
Y173999D01*
X247001Y174999D01*
X244002D01*
X252999Y169001D02*
Y174999D01*
X250000Y172000D01*
X253998D01*
X290371Y217252D02*
X296369D01*
Y220251D01*
X295369Y221250D01*
X291371D01*
X290371Y220251D01*
Y217252D01*
X291371Y223250D02*
X290371Y224249D01*
Y226249D01*
X291371Y227248D01*
X292370D01*
X293370Y226249D01*
Y225249D01*
Y226249D01*
X294370Y227248D01*
X295369D01*
X296369Y226249D01*
Y224249D01*
X295369Y223250D01*
X158832Y217629D02*
Y211631D01*
X161831D01*
X162830Y212631D01*
Y216629D01*
X161831Y217629D01*
X158832D01*
X168828Y211631D02*
X164830D01*
X168828Y215630D01*
Y216629D01*
X167829Y217629D01*
X165829D01*
X164830Y216629D01*
X220791Y217629D02*
Y211631D01*
X223790D01*
X224790Y212631D01*
Y216629D01*
X223790Y217629D01*
X220791D01*
X226789Y211631D02*
X228789D01*
X227789D01*
Y217629D01*
X226789Y216629D01*
X369881Y79469D02*
X368881Y80469D01*
X366882D01*
X365882Y79469D01*
Y75471D01*
X366882Y74471D01*
X368881D01*
X369881Y75471D01*
X371880Y74471D02*
X373880D01*
X372880D01*
Y80469D01*
X371880Y79469D01*
X380878Y80469D02*
X376879D01*
Y77470D01*
X378878Y78470D01*
X379878D01*
X380878Y77470D01*
Y75471D01*
X379878Y74471D01*
X377878D01*
X376879Y75471D01*
X2400Y133661D02*
X1400Y132662D01*
Y130662D01*
X2400Y129663D01*
X6398D01*
X7398Y130662D01*
Y132662D01*
X6398Y133661D01*
X7398Y135660D02*
Y137660D01*
Y136660D01*
X1400D01*
X2400Y135660D01*
Y140659D02*
X1400Y141658D01*
Y143658D01*
X2400Y144658D01*
X3399D01*
X4399Y143658D01*
Y142658D01*
Y143658D01*
X5399Y144658D01*
X6398D01*
X7398Y143658D01*
Y141658D01*
X6398Y140659D01*
X145501Y18999D02*
X144501Y19999D01*
X142502D01*
X141502Y18999D01*
Y15001D01*
X142502Y14001D01*
X144501D01*
X145501Y15001D01*
X147500Y14001D02*
X149500D01*
X148500D01*
Y19999D01*
X147500Y18999D01*
X152499Y14001D02*
X154498D01*
X153498D01*
Y19999D01*
X152499Y18999D01*
X216170Y173449D02*
X215171Y174449D01*
X213171D01*
X212172Y173449D01*
Y169451D01*
X213171Y168451D01*
X215171D01*
X216170Y169451D01*
X218170Y174449D02*
X222168D01*
Y173449D01*
X218170Y169451D01*
Y168451D01*
X222520Y111219D02*
X221521Y112219D01*
X219521D01*
X218522Y111219D01*
Y107221D01*
X219521Y106221D01*
X221521D01*
X222520Y107221D01*
X228518Y112219D02*
X226519Y111219D01*
X224520Y109220D01*
Y107221D01*
X225519Y106221D01*
X227519D01*
X228518Y107221D01*
Y108220D01*
X227519Y109220D01*
X224520D01*
X237760Y111219D02*
X236761Y112219D01*
X234761D01*
X233762Y111219D01*
Y107221D01*
X234761Y106221D01*
X236761D01*
X237760Y107221D01*
X242759Y106221D02*
Y112219D01*
X239760Y109220D01*
X243758D01*
M02*
