G04*
G04 #@! TF.GenerationSoftware,Altium Limited,Altium Designer,21.7.1 (17)*
G04*
G04 Layer_Physical_Order=2*
G04 Layer_Color=16711680*
%FSLAX44Y44*%
%MOMM*%
G71*
G04*
G04 #@! TF.SameCoordinates,46D70AF8-5DF4-403A-B55C-3C1985085F34*
G04*
G04*
G04 #@! TF.FilePolarity,Positive*
G04*
G01*
G75*
%ADD13C,0.3000*%
%ADD21R,0.7500X0.7500*%
%ADD46C,0.5000*%
%ADD47C,0.6000*%
%ADD48C,1.0000*%
%ADD49C,0.6350*%
%ADD50O,2.0000X1.6000*%
%ADD51R,2.0000X1.6000*%
%ADD52C,3.5000*%
%ADD53R,1.6000X2.0000*%
%ADD54O,1.6000X2.0000*%
%ADD55C,1.0000*%
%ADD56C,0.6000*%
%ADD57R,5.8000X6.4000*%
%ADD58R,1.2000X2.2000*%
%ADD59R,3.8100X3.8100*%
%ADD60R,0.6000X0.8000*%
%ADD61C,3.0000*%
D13*
X360680Y71120D02*
X366640Y77080D01*
Y108523D01*
X357563Y152530D02*
X364640Y145454D01*
X357563Y152530D02*
Y152977D01*
X364640Y110523D02*
X366640Y108523D01*
X364640Y110523D02*
Y145454D01*
X215680Y204360D02*
X372220D01*
X124160Y209360D02*
X374820D01*
X299720Y17780D02*
X330200Y48260D01*
X444580Y233600D02*
X454660Y223520D01*
X432050Y228600D02*
X439420D01*
X429979Y233600D02*
X444580D01*
X439420Y228600D02*
X444500Y223520D01*
X421590Y225211D02*
X429979Y233600D01*
X426720Y223270D02*
X432050Y228600D01*
X454660Y218680D02*
X454900Y218440D01*
X454660Y218680D02*
Y223520D01*
X374820Y209360D02*
X383900Y218440D01*
X330200Y48260D02*
X339280D01*
X340300Y47240D01*
X167640Y152400D02*
X177800Y142240D01*
X167640Y152400D02*
Y175260D01*
X177800Y81280D02*
Y142240D01*
X161140Y184000D02*
X172983Y195843D01*
X161140Y66120D02*
Y184000D01*
X147260Y52240D02*
X161140Y66120D01*
X340300Y181860D02*
X341320Y182880D01*
X347980D01*
X358140Y172720D01*
X314960Y160020D02*
X398333D01*
X313200Y161780D02*
Y190072D01*
X321998Y165100D02*
X393700D01*
X320241Y166857D02*
Y192286D01*
X403413Y165100D02*
X403860D01*
X393700D02*
X401320Y172720D01*
X398333Y160020D02*
X403413Y165100D01*
X313200Y161780D02*
X314960Y160020D01*
X320241Y166857D02*
X321998Y165100D01*
X256540Y124460D02*
Y149860D01*
X261022Y119147D02*
Y119978D01*
Y119147D02*
X261596Y118573D01*
X256540Y124460D02*
X261022Y119978D01*
X243780Y162620D02*
X256540Y149860D01*
X243780Y162620D02*
Y181860D01*
X174712Y195843D02*
X179528Y200660D01*
X180340D01*
X172983Y195843D02*
X174712D01*
X177800Y81280D02*
X187960Y71120D01*
X213360D01*
X227740Y56740D02*
X239280D01*
X213360Y71120D02*
X227740Y56740D01*
X243780Y47240D02*
Y52240D01*
X239280Y56740D02*
X243780Y52240D01*
X147260Y47240D02*
Y52240D01*
Y186860D02*
X155406Y195006D01*
X159446D01*
X160020Y195580D01*
X147260Y181860D02*
Y186860D01*
X311719Y191552D02*
Y192364D01*
Y191552D02*
X313200Y190072D01*
X319706Y192820D02*
X320241Y192286D01*
X307200Y199360D02*
X367420D01*
X383900Y182880D01*
X363220Y219560D02*
X363794Y220134D01*
X294700Y186860D02*
X307200Y199360D01*
X372220Y204360D02*
X375920Y200660D01*
X198180Y186860D02*
X215680Y204360D01*
X101660Y186860D02*
X124160Y209360D01*
X363794Y220134D02*
Y225666D01*
X388740Y172720D02*
X398900Y182880D01*
X378460Y172720D02*
X388740D01*
X421590Y176109D02*
X424979Y172720D01*
X421590Y176109D02*
Y180630D01*
X424979Y172720D02*
X444740D01*
X419340Y182880D02*
X421590Y180630D01*
X444740Y172720D02*
X454900Y182880D01*
X441960Y144780D02*
X462280Y165100D01*
Y187950D01*
X360680Y190500D02*
X378460Y172720D01*
X363794Y225666D02*
X370688Y232560D01*
X391650Y207910D02*
X398900Y200660D01*
X389301Y232560D02*
X396650Y225211D01*
Y220690D02*
X398900Y218440D01*
X396650Y220690D02*
Y225211D01*
X391650Y207910D02*
Y223140D01*
X370688Y232560D02*
X389301D01*
X388730Y226060D02*
X391650Y223140D01*
X373380Y226060D02*
X388730D01*
X457190Y193040D02*
X462280Y187950D01*
X441960Y193040D02*
X457190D01*
X434340Y200660D02*
X441960Y193040D01*
X375920Y200660D02*
X383900D01*
X448167Y207153D02*
X448407D01*
X444500Y210820D02*
X448167Y207153D01*
X448407D02*
X454900Y200660D01*
X444500Y210820D02*
Y223520D01*
X426720Y208040D02*
Y223270D01*
X421590Y220690D02*
Y225211D01*
X419340Y200660D02*
X426720Y208040D01*
X398900Y182880D02*
X419340D01*
X434340D02*
Y200660D01*
Y218440D01*
X398900D02*
X419340D01*
X421590Y220690D01*
X398900Y200660D02*
X419340D01*
X101660Y181860D02*
Y186860D01*
X198180Y181860D02*
Y186860D01*
D21*
X469900Y200660D02*
D03*
X454900D02*
D03*
X469900Y218440D02*
D03*
X454900D02*
D03*
X383900Y182880D02*
D03*
X398900D02*
D03*
X419340D02*
D03*
X434340D02*
D03*
X383900Y200660D02*
D03*
X398900D02*
D03*
X419340D02*
D03*
X434340D02*
D03*
X383900Y218440D02*
D03*
X398900D02*
D03*
X419340D02*
D03*
X434340D02*
D03*
X469900Y182880D02*
D03*
X454900D02*
D03*
D46*
X352403Y63277D02*
X368060D01*
X352180Y63500D02*
X352403Y63277D01*
X482180Y167640D02*
Y183178D01*
X489560Y190558D01*
Y212644D01*
X443048Y259156D02*
X489560Y212644D01*
X370377Y60960D02*
X375500D01*
X479680Y165140D01*
X368060Y63277D02*
X370377Y60960D01*
X436880Y260113D02*
X437837Y259156D01*
X443048D01*
X271780Y170020D02*
X271820Y169980D01*
Y152600D02*
Y169980D01*
Y152600D02*
X274320Y150100D01*
Y78740D02*
Y150100D01*
D47*
X343883Y69345D02*
X347778Y73240D01*
X348571D01*
X351500Y76169D01*
X336045Y69345D02*
X343883D01*
X351500Y78638D02*
X358140Y85278D01*
Y86360D01*
X351500Y76169D02*
Y78638D01*
X78657Y169070D02*
X79740D01*
X70517Y160929D02*
X78657Y169070D01*
X47712Y160929D02*
X70517D01*
X39182Y152400D02*
X47712Y160929D01*
X38100Y152400D02*
X39182D01*
X469900Y200660D02*
X480060D01*
X500380Y138500D02*
Y154940D01*
X521240Y117640D02*
X523240D01*
X500380Y138500D02*
X521240Y117640D01*
X469900Y182880D02*
Y200660D01*
Y218440D01*
X355600Y138618D02*
Y139700D01*
X358140Y86360D02*
Y136078D01*
X355600Y138618D02*
X358140Y136078D01*
X377000Y148780D02*
X399860D01*
X424180Y124460D01*
X223520Y158562D02*
X228600Y153482D01*
Y152400D02*
Y153482D01*
X223520Y158562D02*
Y185420D01*
X232780Y194680D01*
Y194931D01*
X235709Y197860D02*
X251851D01*
X232780Y194931D02*
X235709Y197860D01*
X251851D02*
X259080Y190631D01*
Y170180D02*
Y190631D01*
X523240Y117640D02*
X525240D01*
X398780Y279940D02*
Y281940D01*
X414020Y251460D02*
X425380Y240100D01*
X448240D01*
X469900Y218440D01*
X38100Y152400D02*
X75435Y115065D01*
X80515D01*
X81280Y114300D01*
X294700Y52240D02*
X297700Y55240D01*
X302700D02*
X316040Y68580D01*
X335280D01*
X294700Y47240D02*
Y52240D01*
X297700Y55240D02*
X302700D01*
X335280Y68580D02*
X336045Y69345D01*
D48*
X25400Y185420D02*
X60960D01*
D49*
X493180Y167640D02*
X523240D01*
D50*
D03*
Y142640D02*
D03*
D51*
Y117640D02*
D03*
D52*
X38100Y38100D02*
D03*
X561340D02*
D03*
X38100Y261620D02*
D03*
D53*
X398780Y281940D02*
D03*
D54*
X424180D02*
D03*
X449580D02*
D03*
X474980D02*
D03*
X500380D02*
D03*
X525780D02*
D03*
D55*
X352180Y63500D02*
D03*
X79740Y169070D02*
D03*
X480060Y200660D02*
D03*
X500380Y154940D02*
D03*
X355600Y139700D02*
D03*
X377000Y148780D02*
D03*
X424180Y124460D02*
D03*
X259080Y170180D02*
D03*
X228600Y152400D02*
D03*
X436880Y260113D02*
D03*
X81280Y114300D02*
D03*
X38100Y152400D02*
D03*
X147320Y10160D02*
D03*
X414020Y251460D02*
D03*
X271780Y170020D02*
D03*
X358140Y86360D02*
D03*
X335280Y68580D02*
D03*
X274320Y78740D02*
D03*
X60960Y185420D02*
D03*
D56*
X360680Y71120D02*
D03*
X38100Y185420D02*
D03*
Y116840D02*
D03*
X357563Y152977D02*
D03*
X299720Y17780D02*
D03*
X167640Y175260D02*
D03*
X358140Y172720D02*
D03*
X261596Y118573D02*
D03*
X180340Y200660D02*
D03*
X160020Y195580D02*
D03*
X311719Y192364D02*
D03*
X319706Y192820D02*
D03*
X363220Y219560D02*
D03*
X403860Y165100D02*
D03*
X401320Y172720D02*
D03*
X360680Y190500D02*
D03*
X373380Y226060D02*
D03*
X441960Y144780D02*
D03*
D57*
X317500Y244860D02*
D03*
Y110240D02*
D03*
X220980D02*
D03*
Y244860D02*
D03*
X124460Y110240D02*
D03*
Y244860D02*
D03*
D58*
X294700Y181860D02*
D03*
X340300D02*
D03*
X294700Y47240D02*
D03*
X340300D02*
D03*
X198180D02*
D03*
X243780D02*
D03*
X198180Y181860D02*
D03*
X243780D02*
D03*
X101660Y47240D02*
D03*
X147260D02*
D03*
X101660Y181860D02*
D03*
X147260D02*
D03*
D59*
X25400Y116840D02*
D03*
Y185420D02*
D03*
D60*
X482180Y167640D02*
D03*
X493180D02*
D03*
D61*
X25400Y185420D02*
X67840Y227860D01*
X110460D01*
X124460Y241860D01*
Y244860D01*
X25400Y116840D02*
X95000Y47240D01*
X101660D01*
X206980Y124240D02*
Y142907D01*
X198180Y151707D02*
X206980Y142907D01*
X198180Y151707D02*
Y181860D01*
X206980Y124240D02*
X220980Y110240D01*
X124460Y17780D02*
X198120D01*
X265240D02*
X294700Y47240D01*
X198120Y17780D02*
X265240D01*
X198180Y17840D02*
Y47240D01*
X198120Y17780D02*
X198180Y17840D01*
X101660Y40580D02*
X124460Y17780D01*
X101660Y40580D02*
Y47240D01*
X294700Y154117D02*
X303500Y145317D01*
Y124240D02*
Y145317D01*
Y124240D02*
X317500Y110240D01*
X294700Y154117D02*
Y181860D01*
X110460Y124240D02*
Y173060D01*
X101660Y181860D02*
X110460Y173060D01*
Y124240D02*
X124460Y110240D01*
X220980Y244860D02*
X317500D01*
X124460D02*
X220980D01*
M02*
