G04*
G04 #@! TF.GenerationSoftware,Altium Limited,Altium Designer,21.7.1 (17)*
G04*
G04 Layer_Color=16711935*
%FSLAX44Y44*%
%MOMM*%
G71*
G04*
G04 #@! TF.SameCoordinates,13432A2F-5693-4F9D-A56B-2ECE4EB69D10*
G04*
G04*
G04 #@! TF.FilePolarity,Negative*
G04*
G01*
G75*
%ADD38R,1.8000X2.2000*%
%ADD39O,1.8000X2.2000*%
%ADD40R,2.2000X1.8000*%
%ADD41O,2.2000X1.8000*%
%ADD42C,3.7000*%
%ADD55C,3.0000*%
%ADD57R,1.4000X2.4000*%
%ADD58R,6.0000X6.6000*%
%ADD59R,4.0132X4.0132*%
%ADD60C,0.8000*%
%ADD61C,1.2000*%
D38*
X104140Y274320D02*
D03*
D39*
X129540D02*
D03*
X154940D02*
D03*
X180340D02*
D03*
X205740D02*
D03*
X231140D02*
D03*
D40*
X322580Y201060D02*
D03*
D41*
Y226060D02*
D03*
Y251060D02*
D03*
D42*
X38100Y256540D02*
D03*
Y38100D02*
D03*
X336550D02*
D03*
D55*
X233772Y15240D02*
X250250Y31718D01*
Y47240D01*
X172720Y15240D02*
X233772D01*
X246440Y162810D02*
X248710Y160540D01*
X259050Y150200D01*
X25400Y116840D02*
X95310Y46930D01*
X171510Y161540D02*
X186660Y146390D01*
X95310Y41850D02*
X121920Y15240D01*
X184785Y225175D02*
X258445D01*
X119380Y224540D02*
X184150D01*
X109220D02*
X119380D01*
X109220Y211380D02*
Y224540D01*
X186660Y117890D02*
Y146390D01*
X259050Y121700D02*
Y150200D01*
Y121700D02*
X270510Y110240D01*
X106650Y122970D02*
Y151470D01*
Y122970D02*
X120650Y108970D01*
X96580Y161540D02*
X106650Y151470D01*
X47520Y207540D02*
X105380D01*
X121920Y15240D02*
X172720D01*
X172780Y15300D02*
Y45970D01*
D57*
X222190Y161540D02*
D03*
X176590D02*
D03*
X248980D02*
D03*
X294580D02*
D03*
X250250Y47240D02*
D03*
X295850D02*
D03*
X177860Y45970D02*
D03*
X223460D02*
D03*
X97850D02*
D03*
X143450D02*
D03*
X96580Y161540D02*
D03*
X142180D02*
D03*
D58*
X199390Y224540D02*
D03*
X271780D02*
D03*
X273050Y110240D02*
D03*
X200660Y108970D02*
D03*
X120650D02*
D03*
X119380Y224540D02*
D03*
D59*
X25400Y116840D02*
D03*
Y185420D02*
D03*
D60*
X90170Y50800D02*
D03*
X124460Y115570D02*
D03*
D61*
X73660Y74540D02*
D03*
M02*
