G04*
G04 #@! TF.GenerationSoftware,Altium Limited,Altium Designer,21.7.1 (17)*
G04*
G04 Layer_Color=32896*
%FSLAX44Y44*%
%MOMM*%
G71*
G04*
G04 #@! TF.SameCoordinates,13432A2F-5693-4F9D-A56B-2ECE4EB69D10*
G04*
G04*
G04 #@! TF.FilePolarity,Positive*
G04*
G01*
G75*
%ADD10C,0.2540*%
%ADD11C,0.2000*%
%ADD13C,0.1400*%
%ADD62C,0.5080*%
%ADD63C,0.4000*%
%ADD64C,0.1270*%
%ADD65C,1.0000*%
D10*
X224390Y140040D02*
G03*
X224390Y140040I-2000J0D01*
G01*
X296780D02*
G03*
X296780Y140040I-2000J0D01*
G01*
X298050Y25740D02*
G03*
X298050Y25740I-2000J0D01*
G01*
X225660Y24470D02*
G03*
X225660Y24470I-2000J0D01*
G01*
X145650D02*
G03*
X145650Y24470I-2000J0D01*
G01*
X144380Y140040D02*
G03*
X144380Y140040I-2000J0D01*
G01*
D11*
X165740Y258040D02*
X233040D01*
X165740Y192040D02*
Y258040D01*
X233390Y192040D02*
Y258140D01*
X165740Y192040D02*
X233040D01*
X238130D02*
X305430D01*
X305780D02*
Y258140D01*
X238130Y192040D02*
Y258040D01*
X305430D01*
X239400Y77740D02*
X306700D01*
X307050D02*
Y143840D01*
X239400Y77740D02*
Y143740D01*
X306700D01*
X167010Y76470D02*
X234310D01*
X234660D02*
Y142570D01*
X167010Y76470D02*
Y142470D01*
X234310D01*
X87000Y76470D02*
X154300D01*
X154650D02*
Y142570D01*
X87000Y76470D02*
Y142470D01*
X154300D01*
X85730Y192040D02*
X153030D01*
X153380D02*
Y258140D01*
X85730Y192040D02*
Y258040D01*
X153030D01*
D13*
X310691Y114218D02*
Y110220D01*
Y112219D01*
X316689D01*
X310691Y104222D02*
X311691Y106221D01*
X313690Y108220D01*
X315689D01*
X316689Y107221D01*
Y105221D01*
X315689Y104222D01*
X314690D01*
X313690Y105221D01*
Y108220D01*
X240112Y267159D02*
X244110D01*
X242111D01*
Y261161D01*
X250108Y267159D02*
X246110D01*
Y264160D01*
X248109Y265160D01*
X249109D01*
X250108Y264160D01*
Y262161D01*
X249109Y261161D01*
X247109D01*
X246110Y262161D01*
X158291Y114218D02*
Y110220D01*
Y112219D01*
X164289D01*
Y105221D02*
X158291D01*
X161290Y108220D01*
Y104222D01*
X188042Y267159D02*
X192040D01*
X190041D01*
Y261161D01*
X194040Y266159D02*
X195039Y267159D01*
X197039D01*
X198038Y266159D01*
Y265160D01*
X197039Y264160D01*
X196039D01*
X197039D01*
X198038Y263160D01*
Y262161D01*
X197039Y261161D01*
X195039D01*
X194040Y262161D01*
X77011Y114218D02*
Y110220D01*
Y112219D01*
X83009D01*
Y104222D02*
Y108220D01*
X79010Y104222D01*
X78011D01*
X77011Y105221D01*
Y107221D01*
X78011Y108220D01*
X82361Y267159D02*
X86360D01*
X84361D01*
Y261161D01*
X88359D02*
X90359D01*
X89359D01*
Y267159D01*
X88359Y266159D01*
D62*
X376864Y69850D02*
Y76515D01*
Y73182D01*
X356870D01*
Y69850D01*
Y76515D01*
X373531Y86511D02*
X376864Y89844D01*
Y96508D01*
X373531Y99840D01*
X370199D01*
X366867Y96508D01*
Y93176D01*
Y96508D01*
X363535Y99840D01*
X360202D01*
X356870Y96508D01*
Y89844D01*
X360202Y86511D01*
X376864Y119834D02*
Y106505D01*
X356870D01*
Y119834D01*
X366867Y106505D02*
Y113169D01*
X376864Y126498D02*
X373531D01*
X366867Y133163D01*
X373531Y139827D01*
X376864D01*
X366867Y133163D02*
X356870D01*
X376864Y146492D02*
Y159821D01*
Y153156D01*
X356870D01*
X376864Y166486D02*
X360202D01*
X356870Y169818D01*
Y176482D01*
X360202Y179815D01*
X376864D01*
Y186479D02*
X356870D01*
Y199808D01*
X376864Y206473D02*
X356870D01*
Y219802D01*
Y226466D02*
X370199D01*
X376864Y233131D01*
X370199Y239795D01*
X356870D01*
X366867D01*
Y226466D01*
X376864Y246460D02*
X356870D01*
X366867D01*
Y259789D01*
X376864D01*
X356870D01*
D63*
X254190Y270565D02*
Y285560D01*
X261688D01*
X264187Y283061D01*
Y280562D01*
X261688Y278062D01*
X254190D01*
X261688D01*
X264187Y275563D01*
Y273064D01*
X261688Y270565D01*
X254190D01*
X269185Y285560D02*
Y270565D01*
X276683D01*
X279182Y273064D01*
Y278062D01*
X276683Y280562D01*
X269185D01*
X274184D02*
X279182Y285560D01*
X284180D02*
Y275563D01*
X289179Y270565D01*
X294177Y275563D01*
Y285560D01*
Y278062D01*
X284180D01*
X299175Y270565D02*
X304174D01*
X301675D01*
Y285560D01*
X299175D01*
X304174D01*
X311671D02*
Y270565D01*
X321668Y285560D01*
Y270565D01*
X326666Y285560D02*
Y283061D01*
X329166D01*
Y285560D01*
X326666D01*
X339162Y270565D02*
Y285560D01*
X346660D01*
X349159Y283061D01*
Y273064D01*
X346660Y270565D01*
X339162D01*
X354158D02*
Y285560D01*
X364154D01*
X369153Y270565D02*
Y285560D01*
X379150D01*
D64*
X137160Y287020D02*
Y292098D01*
X134621D01*
X133774Y291252D01*
Y289559D01*
X134621Y288713D01*
X137160D01*
X135467D02*
X133774Y287020D01*
X128696Y291252D02*
X129543Y292098D01*
X131235D01*
X132082Y291252D01*
Y290406D01*
X131235Y289559D01*
X129543D01*
X128696Y288713D01*
Y287866D01*
X129543Y287020D01*
X131235D01*
X132082Y287866D01*
X127003Y292098D02*
X123618D01*
X125310D01*
Y287020D01*
X107104Y291252D02*
X107951Y292098D01*
X109644D01*
X110490Y291252D01*
Y287866D01*
X109644Y287020D01*
X107951D01*
X107104Y287866D01*
Y289559D01*
X108797D01*
X105412Y287020D02*
Y292098D01*
X102026Y287020D01*
Y292098D01*
X100333D02*
Y287020D01*
X97794D01*
X96948Y287866D01*
Y291252D01*
X97794Y292098D01*
X100333D01*
X189230Y287020D02*
Y292098D01*
X187537Y290406D01*
X185844Y292098D01*
Y287020D01*
X184152Y292098D02*
X182459D01*
X183305D01*
Y287020D01*
X184152D01*
X182459D01*
X176534Y291252D02*
X177381Y292098D01*
X179073D01*
X179920Y291252D01*
Y290406D01*
X179073Y289559D01*
X177381D01*
X176534Y288713D01*
Y287866D01*
X177381Y287020D01*
X179073D01*
X179920Y287866D01*
X172302Y292098D02*
X173995D01*
X174841Y291252D01*
Y287866D01*
X173995Y287020D01*
X172302D01*
X171456Y287866D01*
Y291252D01*
X172302Y292098D01*
X232834D02*
X236220D01*
Y289559D01*
X234527Y290406D01*
X233681D01*
X232834Y289559D01*
Y287866D01*
X233681Y287020D01*
X235374D01*
X236220Y287866D01*
X231142Y292098D02*
Y288713D01*
X229449Y287020D01*
X227756Y288713D01*
Y292098D01*
X212090Y287020D02*
Y292098D01*
X210397Y290406D01*
X208704Y292098D01*
Y287020D01*
X204473Y292098D02*
X206165D01*
X207012Y291252D01*
Y287866D01*
X206165Y287020D01*
X204473D01*
X203626Y287866D01*
Y291252D01*
X204473Y292098D01*
X198548Y291252D02*
X199394Y292098D01*
X201087D01*
X201933Y291252D01*
Y290406D01*
X201087Y289559D01*
X199394D01*
X198548Y288713D01*
Y287866D01*
X199394Y287020D01*
X201087D01*
X201933Y287866D01*
X196855Y292098D02*
X195162D01*
X196008D01*
Y287020D01*
X196855D01*
X195162D01*
X157904Y291252D02*
X158751Y292098D01*
X160444D01*
X161290Y291252D01*
Y290406D01*
X160444Y289559D01*
X158751D01*
X157904Y288713D01*
Y287866D01*
X158751Y287020D01*
X160444D01*
X161290Y287866D01*
X152826Y291252D02*
X153673Y292098D01*
X155365D01*
X156212Y291252D01*
Y287866D01*
X155365Y287020D01*
X153673D01*
X152826Y287866D01*
X151133Y292098D02*
Y287020D01*
Y288713D01*
X147748Y292098D01*
X150287Y289559D01*
X147748Y287020D01*
X343324Y253998D02*
X346710D01*
Y251459D01*
X345017Y252306D01*
X344171D01*
X343324Y251459D01*
Y249766D01*
X344171Y248920D01*
X345864D01*
X346710Y249766D01*
X341632Y253998D02*
Y250613D01*
X339939Y248920D01*
X338246Y250613D01*
Y253998D01*
X345864Y198542D02*
X346711Y199388D01*
X348404D01*
X349250Y198542D01*
Y195156D01*
X348404Y194310D01*
X346711D01*
X345864Y195156D01*
Y196849D01*
X347557D01*
X344172Y194310D02*
Y199388D01*
X340786Y194310D01*
Y199388D01*
X339093D02*
Y194310D01*
X336554D01*
X335708Y195156D01*
Y198542D01*
X336554Y199388D01*
X339093D01*
X349250Y223520D02*
Y228598D01*
X346711D01*
X345864Y227752D01*
Y226059D01*
X346711Y225213D01*
X349250D01*
X344172Y228598D02*
Y223520D01*
X342479Y225213D01*
X340786Y223520D01*
Y228598D01*
X339093Y223520D02*
Y228598D01*
X337401Y226906D01*
X335708Y228598D01*
Y223520D01*
D65*
X50392Y61205D02*
Y91195D01*
X35397D01*
X30398Y86197D01*
Y76200D01*
X35397Y71202D01*
X50392D01*
X408Y61205D02*
X20402D01*
X408Y81198D01*
Y86197D01*
X5407Y91195D01*
X15403D01*
X20402Y86197D01*
X45394Y208525D02*
Y238515D01*
X30398D01*
X25400Y233517D01*
Y223520D01*
X30398Y218522D01*
X45394D01*
X15403Y208525D02*
X5407D01*
X10405D01*
Y238515D01*
X15403Y233517D01*
M02*
