G04*
G04 #@! TF.GenerationSoftware,Altium Limited,Altium Designer,21.7.1 (17)*
G04*
G04 Layer_Color=8421504*
%FSLAX44Y44*%
%MOMM*%
G71*
G04*
G04 #@! TF.SameCoordinates,3410F848-C5A3-4CD9-B6BE-FCF06B59130C*
G04*
G04*
G04 #@! TF.FilePolarity,Positive*
G04*
G01*
G75*
%ADD14R,6.0000X2.0000*%
%ADD15R,0.5500X1.6000*%
%ADD16R,1.6000X0.5500*%
%ADD17R,1.3500X2.2000*%
%ADD18R,0.8000X0.8000*%
%ADD19R,0.8000X0.8000*%
%ADD20R,0.8800X1.0200*%
%ADD21R,1.5200X0.6000*%
%ADD22R,0.7500X0.7500*%
%ADD23R,0.7500X0.7500*%
%ADD24R,1.3000X0.9000*%
D14*
X371560Y25400D02*
D03*
X461560D02*
D03*
D15*
X353000Y123100D02*
D03*
X361000D02*
D03*
X369000D02*
D03*
X377000D02*
D03*
X385000D02*
D03*
X393000D02*
D03*
X401000D02*
D03*
X409000D02*
D03*
Y207100D02*
D03*
X401000D02*
D03*
X393000D02*
D03*
X385000D02*
D03*
X377000D02*
D03*
X369000D02*
D03*
X361000D02*
D03*
X353000D02*
D03*
D16*
X423000Y137100D02*
D03*
Y145100D02*
D03*
Y153100D02*
D03*
Y161100D02*
D03*
Y169100D02*
D03*
Y177100D02*
D03*
Y185100D02*
D03*
Y193100D02*
D03*
X339000D02*
D03*
Y185100D02*
D03*
Y177100D02*
D03*
Y169100D02*
D03*
Y161100D02*
D03*
Y153100D02*
D03*
Y145100D02*
D03*
Y137100D02*
D03*
D17*
X104140Y232540D02*
D03*
Y204340D02*
D03*
Y143640D02*
D03*
Y115440D02*
D03*
Y54740D02*
D03*
Y26540D02*
D03*
D18*
X500380Y220980D02*
D03*
Y205980D02*
D03*
X474980Y220980D02*
D03*
Y205980D02*
D03*
D19*
X307460Y63500D02*
D03*
X322460D02*
D03*
D20*
X271780Y143670D02*
D03*
Y176370D02*
D03*
D21*
X187420Y222250D02*
D03*
Y234950D02*
D03*
Y247650D02*
D03*
Y260350D02*
D03*
X132620Y222250D02*
D03*
Y234950D02*
D03*
Y247650D02*
D03*
Y260350D02*
D03*
X187420Y130810D02*
D03*
Y143510D02*
D03*
Y156210D02*
D03*
Y168910D02*
D03*
X132620Y130810D02*
D03*
Y143510D02*
D03*
Y156210D02*
D03*
Y168910D02*
D03*
X187420Y41910D02*
D03*
Y54610D02*
D03*
Y67310D02*
D03*
Y80010D02*
D03*
X132620Y41910D02*
D03*
Y54610D02*
D03*
Y67310D02*
D03*
Y80010D02*
D03*
D22*
X386080Y226180D02*
D03*
Y241180D02*
D03*
X416560Y241180D02*
D03*
Y226180D02*
D03*
X401320Y241180D02*
D03*
Y226180D02*
D03*
X363220Y86480D02*
D03*
Y101480D02*
D03*
X378460Y86480D02*
D03*
Y101480D02*
D03*
X393700Y86480D02*
D03*
Y101480D02*
D03*
X500380Y241420D02*
D03*
Y256420D02*
D03*
X474980Y241420D02*
D03*
Y256420D02*
D03*
X408940Y86480D02*
D03*
Y101480D02*
D03*
X208280Y213480D02*
D03*
Y228480D02*
D03*
Y243960D02*
D03*
Y258960D02*
D03*
Y124580D02*
D03*
Y139580D02*
D03*
Y155060D02*
D03*
Y170060D02*
D03*
Y33140D02*
D03*
Y48140D02*
D03*
Y63620D02*
D03*
Y78620D02*
D03*
D23*
X289680Y160020D02*
D03*
X304680D02*
D03*
X385960Y58420D02*
D03*
X370960D02*
D03*
X447160D02*
D03*
X462160D02*
D03*
X111640Y259080D02*
D03*
X96640D02*
D03*
X111640Y170180D02*
D03*
X96640D02*
D03*
X111640Y81280D02*
D03*
X96640D02*
D03*
X441840Y208280D02*
D03*
X426840D02*
D03*
X307714Y80469D02*
D03*
X322714D02*
D03*
X304680Y175260D02*
D03*
X289680D02*
D03*
X409060Y58420D02*
D03*
X424060D02*
D03*
X304680Y144780D02*
D03*
X289680D02*
D03*
X167520Y203200D02*
D03*
X152520D02*
D03*
X167520Y276860D02*
D03*
X152520D02*
D03*
X167520Y114300D02*
D03*
X152520D02*
D03*
X167520Y185420D02*
D03*
X152520D02*
D03*
X167520Y25400D02*
D03*
X152520D02*
D03*
X167520Y96520D02*
D03*
X152520D02*
D03*
D24*
X436880Y245720D02*
D03*
Y226720D02*
D03*
X342900Y81940D02*
D03*
Y100940D02*
D03*
M02*
