G04*
G04 #@! TF.GenerationSoftware,Altium Limited,Altium Designer,21.7.1 (17)*
G04*
G04 Layer_Color=65535*
%FSLAX44Y44*%
%MOMM*%
G71*
G04*
G04 #@! TF.SameCoordinates,3410F848-C5A3-4CD9-B6BE-FCF06B59130C*
G04*
G04*
G04 #@! TF.FilePolarity,Positive*
G04*
G01*
G75*
%ADD10C,0.2000*%
%ADD11C,0.3500*%
%ADD12C,0.2540*%
%ADD13C,0.3000*%
D10*
X75100Y261620D02*
G03*
X75100Y261620I-37000J0D01*
G01*
X598340Y38100D02*
G03*
X598340Y38100I-37000J0D01*
G01*
X75100D02*
G03*
X75100Y38100I-37000J0D01*
G01*
X356560Y1400D02*
X476560D01*
Y49400D01*
X356560D02*
X476560D01*
X356560Y1400D02*
Y49400D01*
X413000Y130100D02*
X416000D01*
Y133100D01*
Y197100D02*
Y200100D01*
X413000D02*
X416000D01*
X346000D02*
X349000D01*
X346000Y197100D02*
Y200100D01*
Y133100D02*
X349000Y130100D01*
X90140Y188440D02*
X118140D01*
X90140Y242440D02*
X96140Y248440D01*
X112140D02*
X118140Y242440D01*
X112140Y248440D02*
X118140Y242440D01*
Y188440D02*
Y242440D01*
X96140Y248440D02*
X112140D01*
X90140Y242440D02*
X96140Y248440D01*
X90140Y188440D02*
Y242440D01*
Y99540D02*
X118140D01*
X90140Y153540D02*
X96140Y159540D01*
X112140D02*
X118140Y153540D01*
X112140Y159540D02*
X118140Y153540D01*
Y99540D02*
Y153540D01*
X96140Y159540D02*
X112140D01*
X90140Y153540D02*
X96140Y159540D01*
X90140Y99540D02*
Y153540D01*
Y10640D02*
X118140D01*
X90140Y64640D02*
X96140Y70640D01*
X112140D02*
X118140Y64640D01*
X112140Y70640D02*
X118140Y64640D01*
Y10640D02*
Y64640D01*
X96140Y70640D02*
X112140D01*
X90140Y64640D02*
X96140Y70640D01*
X90140Y10640D02*
Y64640D01*
X508000Y195700D02*
Y198240D01*
X492760Y195700D02*
Y198240D01*
X508000D01*
X492760D02*
Y228720D01*
X508000D01*
Y198240D02*
Y228720D01*
X492760Y195700D02*
X508000D01*
X482600D02*
Y198240D01*
X467360Y195700D02*
Y198240D01*
X482600D01*
X467360D02*
Y228720D01*
X482600D01*
Y198240D02*
Y228720D01*
X467360Y195700D02*
X482600D01*
X330200Y71120D02*
X332740D01*
X330200Y55880D02*
X332740D01*
X330200D02*
Y71120D01*
X299720Y55880D02*
X330200D01*
X299720D02*
Y71120D01*
X330200D01*
X332740Y55880D02*
Y71120D01*
X262780Y180020D02*
X268780Y186020D01*
X274780D02*
X280780Y180020D01*
X262780Y136020D02*
X280780D01*
X262780D02*
Y180020D01*
X280780Y136020D02*
Y180020D01*
X140020Y266700D02*
X180020D01*
Y216300D02*
Y266700D01*
X140020Y216300D02*
Y266700D01*
Y216300D02*
X180020D01*
X140020Y175260D02*
X180020D01*
Y124860D02*
Y175260D01*
X140020Y124860D02*
Y175260D01*
Y124860D02*
X180020D01*
X140020Y86360D02*
X180020D01*
Y35960D02*
Y86360D01*
X140020Y35960D02*
Y86360D01*
Y35960D02*
X180020D01*
X379730Y219710D02*
X392430D01*
Y247650D01*
X379730D02*
X392430D01*
X379730Y219710D02*
Y247650D01*
X410210D02*
X422910D01*
X410210Y219710D02*
Y247650D01*
Y219710D02*
X422910D01*
Y247650D01*
X394970D02*
X407670D01*
X394970Y219710D02*
Y247650D01*
Y219710D02*
X407670D01*
Y247650D01*
X356870Y80010D02*
X369570D01*
Y107950D01*
X356870D02*
X369570D01*
X356870Y80010D02*
Y107950D01*
X372110Y80010D02*
X384810D01*
Y107950D01*
X372110D02*
X384810D01*
X372110Y80010D02*
Y107950D01*
X387350Y80010D02*
X400050D01*
Y107950D01*
X387350D02*
X400050D01*
X387350Y80010D02*
Y107950D01*
X283210Y153670D02*
Y166370D01*
Y153670D02*
X311150D01*
Y166370D01*
X283210D02*
X311150D01*
X392430Y52070D02*
Y64770D01*
X364490D02*
X392430D01*
X364490Y52070D02*
Y64770D01*
Y52070D02*
X392430D01*
X440690D02*
Y64770D01*
Y52070D02*
X468630D01*
Y64770D01*
X440690D02*
X468630D01*
X118110Y252730D02*
Y265430D01*
X90170D02*
X118110D01*
X90170Y252730D02*
Y265430D01*
Y252730D02*
X118110D01*
Y163830D02*
Y176530D01*
X90170D02*
X118110D01*
X90170Y163830D02*
Y176530D01*
Y163830D02*
X118110D01*
Y74930D02*
Y87630D01*
X90170D02*
X118110D01*
X90170Y74930D02*
Y87630D01*
Y74930D02*
X118110D01*
X448310Y201930D02*
Y214630D01*
X420370D02*
X448310D01*
X420370Y201930D02*
Y214630D01*
Y201930D02*
X448310D01*
X494030Y234950D02*
X506730D01*
Y262890D01*
X494030D02*
X506730D01*
X494030Y234950D02*
Y262890D01*
X468630Y234950D02*
X481330D01*
Y262890D01*
X468630D02*
X481330D01*
X468630Y234950D02*
Y262890D01*
X301244Y74118D02*
Y86819D01*
Y74118D02*
X329184D01*
Y86819D01*
X301244D02*
X329184D01*
X311150Y168910D02*
Y181610D01*
X283210D02*
X311150D01*
X283210Y168910D02*
Y181610D01*
Y168910D02*
X311150D01*
X402590Y80010D02*
X415290D01*
Y107950D01*
X402590D02*
X415290D01*
X402590Y80010D02*
Y107950D01*
Y52070D02*
Y64770D01*
Y52070D02*
X430530D01*
Y64770D01*
X402590D02*
X430530D01*
X311150Y138430D02*
Y151130D01*
X283210D02*
X311150D01*
X283210Y138430D02*
Y151130D01*
Y138430D02*
X311150D01*
X201930Y207010D02*
X214630D01*
Y234950D01*
X201930D02*
X214630D01*
X201930Y207010D02*
Y234950D01*
X173990Y196850D02*
Y209550D01*
X146050D02*
X173990D01*
X146050Y196850D02*
Y209550D01*
Y196850D02*
X173990D01*
X201930Y237490D02*
X214630D01*
Y265430D01*
X201930D02*
X214630D01*
X201930Y237490D02*
Y265430D01*
X173990Y270510D02*
Y283210D01*
X146050D02*
X173990D01*
X146050Y270510D02*
Y283210D01*
Y270510D02*
X173990D01*
X201930Y118110D02*
X214630D01*
Y146050D01*
X201930D02*
X214630D01*
X201930Y118110D02*
Y146050D01*
X173990Y107950D02*
Y120650D01*
X146050D02*
X173990D01*
X146050Y107950D02*
Y120650D01*
Y107950D02*
X173990D01*
X201930Y148590D02*
X214630D01*
Y176530D01*
X201930D02*
X214630D01*
X201930Y148590D02*
Y176530D01*
X173990Y179070D02*
Y191770D01*
X146050D02*
X173990D01*
X146050Y179070D02*
Y191770D01*
Y179070D02*
X173990D01*
X201930Y26670D02*
X214630D01*
Y54610D01*
X201930D02*
X214630D01*
X201930Y26670D02*
Y54610D01*
X173990Y19050D02*
Y31750D01*
X146050D02*
X173990D01*
X146050Y19050D02*
Y31750D01*
Y19050D02*
X173990D01*
X201930Y57150D02*
X214630D01*
Y85090D01*
X201930D02*
X214630D01*
X201930Y57150D02*
Y85090D01*
X173990Y90170D02*
Y102870D01*
X146050D02*
X173990D01*
X146050Y90170D02*
Y102870D01*
Y90170D02*
X173990D01*
X426720Y218440D02*
Y254000D01*
Y218440D02*
X447040D01*
Y254000D01*
X426720D02*
X447040D01*
X353060Y73660D02*
Y109220D01*
X332740D02*
X353060D01*
X332740Y73660D02*
Y109220D01*
Y73660D02*
X353060D01*
D11*
X355000Y109100D02*
G03*
X355000Y109100I-2000J0D01*
G01*
D12*
X204020Y222300D02*
G03*
X204020Y222300I-2000J0D01*
G01*
Y130860D02*
G03*
X204020Y130860I-2000J0D01*
G01*
Y41960D02*
G03*
X204020Y41960I-2000J0D01*
G01*
X503240Y190640D02*
X589240D01*
X503240Y93640D02*
X589240D01*
X503240D02*
Y190640D01*
X589240Y93640D02*
Y190640D01*
X383540Y269240D02*
X541020D01*
Y294640D01*
X383540D02*
X541020D01*
X383540Y269240D02*
Y294640D01*
X528700Y82180D02*
Y85512D01*
Y83846D01*
X518703D01*
X520369Y82180D01*
X403860Y259080D02*
Y262412D01*
Y260746D01*
X393863D01*
X395529Y259080D01*
D13*
X268780Y186020D02*
X274780D01*
M02*
