G04*
G04 #@! TF.GenerationSoftware,Altium Limited,Altium Designer,21.7.1 (17)*
G04*
G04 Layer_Physical_Order=1*
G04 Layer_Color=255*
%FSLAX44Y44*%
%MOMM*%
G71*
G04*
G04 #@! TF.SameCoordinates,3410F848-C5A3-4CD9-B6BE-FCF06B59130C*
G04*
G04*
G04 #@! TF.FilePolarity,Positive*
G04*
G01*
G75*
%ADD13C,0.3000*%
%ADD14R,6.0000X2.0000*%
%ADD15R,0.5500X1.6000*%
%ADD16R,1.6000X0.5500*%
%ADD17R,1.3500X2.2000*%
%ADD18R,0.8000X0.8000*%
%ADD19R,0.8000X0.8000*%
%ADD20R,0.8800X1.0200*%
%ADD21R,1.5200X0.6000*%
%ADD22R,0.7500X0.7500*%
%ADD23R,0.7500X0.7500*%
%ADD24R,1.3000X0.9000*%
%ADD41C,0.6000*%
%ADD42C,0.6350*%
%ADD43C,0.5000*%
%ADD44C,1.0000*%
%ADD45C,3.5000*%
%ADD46R,2.0000X1.6000*%
%ADD47O,2.0000X1.6000*%
%ADD48O,1.6000X2.0000*%
%ADD49R,1.6000X2.0000*%
%ADD50C,1.0000*%
%ADD51C,0.6000*%
G36*
X213360Y294640D02*
Y274320D01*
X205740Y266700D01*
X180340D01*
X178990Y265350D01*
X177820D01*
Y264180D01*
X177800Y264160D01*
Y254000D01*
X198120D01*
X200660Y251460D01*
X220980D01*
X223520Y248920D01*
Y238760D01*
X220980Y236220D01*
X205740D01*
X200660Y241300D01*
X177800D01*
Y231140D01*
X177820Y231120D01*
Y229950D01*
X178990D01*
X180340Y228600D01*
X200660D01*
Y223520D01*
X203200Y220980D01*
X220980D01*
X223520Y218440D01*
Y203200D01*
X195580Y175260D01*
X180340D01*
X178990Y173910D01*
X177820D01*
Y172740D01*
X177800Y172720D01*
Y162560D01*
X215900D01*
X220980Y157480D01*
Y147320D01*
X198120D01*
X197020Y148420D01*
Y148510D01*
X196930D01*
X195580Y149860D01*
X177800D01*
X175260Y147320D01*
Y139700D01*
X177800Y137160D01*
X198120D01*
X203200Y132080D01*
X228600D01*
Y119347D01*
X222042Y112789D01*
X199631D01*
X195580Y116840D01*
X195478D01*
X194346Y117597D01*
X192980Y117869D01*
X179311D01*
X175260Y121920D01*
X160020D01*
Y160020D01*
X168553Y170260D01*
X168635D01*
X170472Y171021D01*
X171879Y172428D01*
X172640Y174265D01*
Y175164D01*
X172720Y175260D01*
X175260Y193040D01*
X177800Y195580D01*
X182880D01*
X185420Y198120D01*
Y205740D01*
X171089Y220071D01*
Y265069D01*
X175260Y269240D01*
Y281940D01*
X172720Y284480D01*
X142240D01*
X124460Y266700D01*
X104140D01*
Y254000D01*
X99060Y248920D01*
X86360D01*
X50800Y213360D01*
Y76200D01*
X86360Y40640D01*
X111760D01*
X112860Y41740D01*
X112890D01*
Y41770D01*
X119380Y48260D01*
X137081D01*
X142240Y43101D01*
Y15240D01*
X127000Y0D01*
X0D01*
Y297180D01*
X2540Y299720D01*
X208280D01*
X213360Y294640D01*
D02*
G37*
G36*
X144780Y205740D02*
X139700Y200660D01*
X129540D01*
X104140Y175260D01*
Y162560D01*
X101600Y160020D01*
X91440D01*
X83820Y152400D01*
X68580Y167640D01*
Y205740D01*
X81280Y218440D01*
X114300D01*
X116840Y220980D01*
Y228600D01*
X144780D01*
Y205740D01*
D02*
G37*
G36*
X142240Y132001D02*
Y96520D01*
X134620Y88900D01*
X106680D01*
X104140Y86360D01*
Y73660D01*
X101600Y71120D01*
X86360D01*
X71120Y86360D01*
Y130421D01*
X72293Y130907D01*
X73660Y129540D01*
X114300D01*
X121920Y137160D01*
X137081D01*
X142240Y132001D01*
D02*
G37*
G36*
X200660Y71120D02*
X223520D01*
Y58420D01*
X200660D01*
X198120Y60960D01*
X177800D01*
Y48260D01*
X195580D01*
X203200Y40640D01*
X226060D01*
X241300Y55880D01*
X314960D01*
Y71120D01*
X332740D01*
Y60960D01*
X294640Y22860D01*
X205740D01*
X200660Y27940D01*
X200660Y33020D01*
X192959D01*
X191946Y33697D01*
X190580Y33969D01*
X184858D01*
X172720Y46107D01*
Y71120D01*
X175260Y73660D01*
X198120D01*
X200660Y71120D01*
D02*
G37*
G36*
X401320Y73660D02*
X398780Y71120D01*
X378460D01*
Y50800D01*
X365760D01*
Y76200D01*
X363220Y78740D01*
X353060D01*
Y93980D01*
X401320D01*
Y73660D01*
D02*
G37*
G36*
X594360Y96520D02*
Y5080D01*
X533400D01*
X497840Y40640D01*
X454660D01*
Y116840D01*
X469900Y132080D01*
X558800D01*
X594360Y96520D01*
D02*
G37*
G36*
X411480Y289560D02*
Y271780D01*
X424180Y259080D01*
Y233680D01*
X375920D01*
Y243840D01*
X383540Y251460D01*
Y287020D01*
X388391Y291871D01*
X409169D01*
X411480Y289560D01*
D02*
G37*
G36*
X518160Y205740D02*
Y190500D01*
X510540Y182880D01*
X469900D01*
X467360Y185420D01*
Y213360D01*
X510540D01*
X518160Y205740D01*
D02*
G37*
D13*
X357852Y172432D02*
X358140Y172720D01*
X357852Y153265D02*
Y172432D01*
X357563Y152977D02*
X357852Y153265D01*
X250580Y176920D02*
X264160Y190500D01*
X250580Y150420D02*
Y176920D01*
Y150420D02*
X265930Y135070D01*
X264160Y190500D02*
X299720D01*
X262948Y130073D02*
X263856D01*
X208280Y170060D02*
X222961D01*
X262948Y130073D01*
X263856D02*
X263859Y130070D01*
X188509Y25400D02*
X203749Y10160D01*
X302260D01*
X307340Y15240D02*
Y27940D01*
X190580Y30400D02*
X203200Y17780D01*
X302260Y10160D02*
X307340Y15240D01*
X203200Y17780D02*
X299720D01*
X307340Y27940D02*
X334400Y55000D01*
X167520Y25400D02*
X188509D01*
X334400Y55000D02*
X356581D01*
X167520Y46260D02*
X183380Y30400D01*
X356581Y55000D02*
X360680Y59099D01*
Y71120D01*
X167520Y46260D02*
Y96520D01*
X183380Y30400D02*
X190580D01*
X167520Y185420D02*
X167580Y185360D01*
Y175320D02*
X167640Y175260D01*
X167580Y175320D02*
Y185360D01*
X167520Y218560D02*
X180340Y205740D01*
Y200660D02*
Y205740D01*
X167520Y218560D02*
Y276860D01*
X385960Y33900D02*
Y58420D01*
X371560Y25400D02*
X377460D01*
X385960Y33900D01*
X192980Y114300D02*
X198060Y109220D01*
X167520Y114300D02*
X192980D01*
X198060Y109220D02*
X223520D01*
X232873Y118573D01*
X261596D01*
X208280Y78620D02*
X241733Y112073D01*
X275228D01*
X282775Y119620D01*
X261785Y125073D02*
X261788Y125070D01*
X263859Y130070D02*
X305330D01*
X261788Y125070D02*
X307950D01*
X294970Y135070D02*
X304680Y144780D01*
X265930Y135070D02*
X294970D01*
X282775Y119620D02*
X316270D01*
X305330Y130070D02*
X327660Y152400D01*
X307950Y125070D02*
X327980Y145100D01*
X243960Y139580D02*
X258467Y125073D01*
X261785D01*
X208280Y139580D02*
X243960D01*
X160020Y195700D02*
X167520Y203200D01*
X160020Y195580D02*
Y195700D01*
X208280Y258960D02*
X254316D01*
X304800Y185420D02*
X321499D01*
X208280Y228480D02*
X275604D01*
X321499Y185420D02*
X327500Y191421D01*
Y203040D01*
X319706Y192820D02*
Y193569D01*
X254316Y258960D02*
X319706Y193569D01*
X275604Y228480D02*
X311719Y192364D01*
X413220Y295440D02*
X424180Y284480D01*
Y281940D02*
Y284480D01*
X384340Y295440D02*
X413220D01*
X378460Y289560D02*
X384340Y295440D01*
X378460Y254000D02*
Y289560D01*
X327500Y203040D02*
X378460Y254000D01*
X353000Y207100D02*
Y220920D01*
X358140Y226060D01*
X373380D01*
X353000Y207100D02*
X353150Y207250D01*
X362250Y217778D02*
X363220Y218748D01*
X362250Y208350D02*
Y217778D01*
X363220Y218748D02*
Y219560D01*
X361000Y207100D02*
X362250Y208350D01*
X299720Y190500D02*
X304800Y185420D01*
X322365Y114620D02*
X324345Y116600D01*
X294960Y114620D02*
X322365D01*
X228480Y48140D02*
X294960Y114620D01*
X353000Y117850D02*
Y123100D01*
X316270Y119620D02*
X333750Y137100D01*
X351750Y116600D02*
X353000Y117850D01*
X324345Y116600D02*
X351750D01*
X208280Y48140D02*
X228480D01*
X333750Y137100D02*
X339000D01*
X327980Y145100D02*
X339000D01*
X327660Y152400D02*
X338300D01*
X339000Y153100D01*
X403860Y165100D02*
X404672D01*
X408672Y169100D02*
X423000D01*
X404672Y165100D02*
X408672Y169100D01*
X406512Y177100D02*
X423000D01*
X401320Y172720D02*
X402132D01*
X406512Y177100D01*
X339000Y193100D02*
X357268D01*
X359868Y190500D01*
X360680D01*
X187420Y143510D02*
X204350D01*
X208280Y139580D01*
X187995Y169485D02*
X207705D01*
X208280Y170060D01*
X187420Y168910D02*
X187995Y169485D01*
X201810Y234950D02*
X208280Y228480D01*
X187420Y234950D02*
X201810D01*
X187420Y260350D02*
X188115Y259655D01*
X207585D01*
X208280Y258960D01*
X201810Y54610D02*
X208280Y48140D01*
X187420Y54610D02*
X201810D01*
X207585Y79315D02*
X208280Y78620D01*
X187420Y80010D02*
X188115Y79315D01*
X207585D01*
X442020Y193100D02*
X457200Y208280D01*
X452120Y218560D02*
Y269240D01*
X457200Y208280D02*
Y262160D01*
X462280Y246380D02*
X464820Y248920D01*
X457200Y262160D02*
X474980Y279940D01*
X462280Y205740D02*
Y246380D01*
X452067Y269293D02*
X452120Y269240D01*
X452067Y269293D02*
Y279453D01*
X449580Y281940D02*
X452067Y279453D01*
X441840Y208280D02*
X452120Y218560D01*
X441640Y185100D02*
X462280Y205740D01*
X464820Y248920D02*
X492880D01*
X423000Y145100D02*
X423160Y144940D01*
X441800D01*
X441960Y144780D01*
X482600Y142240D02*
X522840D01*
X523240Y142640D01*
X423000Y161100D02*
X463740D01*
X482600Y142240D01*
X492880Y248920D02*
X500380Y256420D01*
X423000Y185100D02*
X441640D01*
X423000Y193100D02*
X442020D01*
X474980Y256420D02*
Y279940D01*
Y281940D01*
X500380Y256420D02*
Y281940D01*
Y220980D02*
Y241420D01*
X474980Y220980D02*
Y241420D01*
X410180Y208280D02*
X426840D01*
X409000Y207100D02*
X410180Y208280D01*
X424060Y58420D02*
X424180Y58540D01*
X409000Y117850D02*
X424180Y102670D01*
X409000Y117850D02*
Y123100D01*
X424180Y58540D02*
Y102670D01*
X401000Y109420D02*
X408940Y101480D01*
X401000Y109420D02*
Y123100D01*
X409000Y58480D02*
Y86420D01*
X408940Y86480D02*
X409000Y86420D01*
Y58480D02*
X409060Y58420D01*
X424060D02*
X447160D01*
X455660Y25400D02*
X461560D01*
X447160Y33900D02*
Y58420D01*
Y33900D02*
X455660Y25400D01*
X385960Y58420D02*
X409060D01*
X307587Y63627D02*
Y80341D01*
X307714Y80469D01*
X307460Y63500D02*
X307587Y63627D01*
X341428Y80469D02*
X342900Y81940D01*
X322714Y80469D02*
X341428D01*
X385000Y207100D02*
X385540Y207640D01*
Y225640D01*
X386080Y226180D01*
D14*
X371560Y25400D02*
D03*
X461560D02*
D03*
D15*
X353000Y123100D02*
D03*
X361000D02*
D03*
X369000D02*
D03*
X377000D02*
D03*
X385000D02*
D03*
X393000D02*
D03*
X401000D02*
D03*
X409000D02*
D03*
Y207100D02*
D03*
X401000D02*
D03*
X393000D02*
D03*
X385000D02*
D03*
X377000D02*
D03*
X369000D02*
D03*
X361000D02*
D03*
X353000D02*
D03*
D16*
X423000Y137100D02*
D03*
Y145100D02*
D03*
Y153100D02*
D03*
Y161100D02*
D03*
Y169100D02*
D03*
Y177100D02*
D03*
Y185100D02*
D03*
Y193100D02*
D03*
X339000D02*
D03*
Y185100D02*
D03*
Y177100D02*
D03*
Y169100D02*
D03*
Y161100D02*
D03*
Y153100D02*
D03*
Y145100D02*
D03*
Y137100D02*
D03*
D17*
X104140Y232540D02*
D03*
Y204340D02*
D03*
Y143640D02*
D03*
Y115440D02*
D03*
Y54740D02*
D03*
Y26540D02*
D03*
D18*
X500380Y220980D02*
D03*
Y205980D02*
D03*
X474980Y220980D02*
D03*
Y205980D02*
D03*
D19*
X307460Y63500D02*
D03*
X322460D02*
D03*
D20*
X271780Y143670D02*
D03*
Y176370D02*
D03*
D21*
X187420Y222250D02*
D03*
Y234950D02*
D03*
Y247650D02*
D03*
Y260350D02*
D03*
X132620Y222250D02*
D03*
Y234950D02*
D03*
Y247650D02*
D03*
Y260350D02*
D03*
X187420Y130810D02*
D03*
Y143510D02*
D03*
Y156210D02*
D03*
Y168910D02*
D03*
X132620Y130810D02*
D03*
Y143510D02*
D03*
Y156210D02*
D03*
Y168910D02*
D03*
X187420Y41910D02*
D03*
Y54610D02*
D03*
Y67310D02*
D03*
Y80010D02*
D03*
X132620Y41910D02*
D03*
Y54610D02*
D03*
Y67310D02*
D03*
Y80010D02*
D03*
D22*
X386080Y226180D02*
D03*
Y241180D02*
D03*
X416560Y241180D02*
D03*
Y226180D02*
D03*
X401320Y241180D02*
D03*
Y226180D02*
D03*
X363220Y86480D02*
D03*
Y101480D02*
D03*
X378460Y86480D02*
D03*
Y101480D02*
D03*
X393700Y86480D02*
D03*
Y101480D02*
D03*
X500380Y241420D02*
D03*
Y256420D02*
D03*
X474980Y241420D02*
D03*
Y256420D02*
D03*
X408940Y86480D02*
D03*
Y101480D02*
D03*
X208280Y213480D02*
D03*
Y228480D02*
D03*
Y243960D02*
D03*
Y258960D02*
D03*
Y124580D02*
D03*
Y139580D02*
D03*
Y155060D02*
D03*
Y170060D02*
D03*
Y33140D02*
D03*
Y48140D02*
D03*
Y63620D02*
D03*
Y78620D02*
D03*
D23*
X289680Y160020D02*
D03*
X304680D02*
D03*
X385960Y58420D02*
D03*
X370960D02*
D03*
X447160D02*
D03*
X462160D02*
D03*
X111640Y259080D02*
D03*
X96640D02*
D03*
X111640Y170180D02*
D03*
X96640D02*
D03*
X111640Y81280D02*
D03*
X96640D02*
D03*
X441840Y208280D02*
D03*
X426840D02*
D03*
X307714Y80469D02*
D03*
X322714D02*
D03*
X304680Y175260D02*
D03*
X289680D02*
D03*
X409060Y58420D02*
D03*
X424060D02*
D03*
X304680Y144780D02*
D03*
X289680D02*
D03*
X167520Y203200D02*
D03*
X152520D02*
D03*
X167520Y276860D02*
D03*
X152520D02*
D03*
X167520Y114300D02*
D03*
X152520D02*
D03*
X167520Y185420D02*
D03*
X152520D02*
D03*
X167520Y25400D02*
D03*
X152520D02*
D03*
X167520Y96520D02*
D03*
X152520D02*
D03*
D24*
X436880Y245720D02*
D03*
Y226720D02*
D03*
X342900Y81940D02*
D03*
Y100940D02*
D03*
D41*
X523240Y76200D02*
Y117640D01*
Y76200D02*
X561340Y38100D01*
X78949Y26540D02*
X104140D01*
X38100Y38100D02*
X67389D01*
X78949Y26540D01*
X38100Y261620D02*
X94100D01*
X96640Y259080D01*
X500380Y154940D02*
Y205980D01*
X377000Y148780D02*
X377000Y148780D01*
X369000Y140780D02*
X377000Y148780D01*
X356606Y139700D02*
X365686Y148780D01*
X377000D01*
X355600Y139700D02*
X356606D01*
X425262Y124460D02*
X432082Y117640D01*
X523240D01*
X424180Y124460D02*
X425262D01*
X259080Y170180D02*
X259845Y169415D01*
Y161795D02*
Y169415D01*
Y161795D02*
X261620Y160020D01*
X227518Y152400D02*
X228600D01*
X224858Y155060D02*
X227518Y152400D01*
X208280Y155060D02*
X224858D01*
X81280Y114300D02*
X103000D01*
X104140Y115440D01*
X38100Y152400D02*
Y261620D01*
X78740Y170180D02*
X96640D01*
X132620Y24860D02*
X147320Y10160D01*
X132620Y24860D02*
Y41910D01*
X415810Y241930D02*
Y248588D01*
X414020Y250378D02*
X415810Y248588D01*
X414020Y250378D02*
Y251460D01*
X415810Y241930D02*
X416560Y241180D01*
X261620Y160020D02*
X289680D01*
X323460Y64500D02*
X330118D01*
X322460Y63500D02*
X323460Y64500D01*
X330118D02*
X334198Y68580D01*
X335280D01*
X369000Y123100D02*
Y140780D01*
X385000Y123100D02*
Y140780D01*
X377000Y148780D02*
X385000Y140780D01*
X377000Y148780D02*
Y207100D01*
D42*
X524510Y280670D02*
X525780Y281940D01*
X524510Y168910D02*
Y280670D01*
X523240Y167640D02*
X524510Y168910D01*
D43*
X436880Y245720D02*
Y260113D01*
X436610Y226450D02*
X436880Y226720D01*
X416830Y226450D02*
X436610D01*
X416560Y226180D02*
X416830Y226450D01*
X271780Y170020D02*
Y176370D01*
X352103Y63577D02*
X352180Y63500D01*
X352103Y63577D02*
Y69911D01*
X346900Y75114D02*
X352103Y69911D01*
X342900Y81940D02*
X344900D01*
X346900Y79940D01*
Y75114D02*
Y79940D01*
X132620Y234950D02*
X146050D01*
X152520Y203200D02*
Y228480D01*
X146050Y234950D02*
X152520Y228480D01*
X274320Y78740D02*
X296790Y101210D01*
X377000Y123100D02*
X377250Y122850D01*
Y102690D02*
Y122850D01*
Y102690D02*
X378460Y101480D01*
X305510Y160850D02*
X338750D01*
X305095D02*
X305510D01*
X304680Y160020D02*
X305510Y160850D01*
X304680Y160020D02*
X304680Y160020D01*
X338750Y160850D02*
X339000Y161100D01*
X137220Y54610D02*
X152520Y39310D01*
Y25400D02*
Y39310D01*
X132620Y54610D02*
X137220D01*
Y80010D02*
X137720Y80510D01*
X132620Y80010D02*
X137220D01*
X137720Y81720D02*
X152520Y96520D01*
X137720Y80510D02*
Y81720D01*
X137220Y143510D02*
X152520Y128210D01*
X132620Y143510D02*
X137220D01*
X152520Y114300D02*
Y128210D01*
X137220Y168910D02*
X137720Y169410D01*
Y170620D02*
X152520Y185420D01*
X137720Y169410D02*
Y170620D01*
X132620Y168910D02*
X137220D01*
X132620Y260350D02*
X146050D01*
X151310Y275650D02*
X152520Y276860D01*
X151310Y265610D02*
Y275650D01*
X146050Y260350D02*
X151310Y265610D01*
X111640Y259080D02*
X122570Y248150D01*
X132120D01*
X132620Y247650D01*
X104140Y232540D02*
Y236790D01*
X111640Y244290D01*
Y259080D01*
Y170180D02*
X125110Y156710D01*
X132120D01*
X132620Y156210D01*
X111640Y155390D02*
Y170180D01*
X104140Y143640D02*
Y147890D01*
X111640Y155390D01*
Y81280D02*
X125110Y67810D01*
X132120D01*
X132620Y67310D01*
X111640Y66490D02*
Y81280D01*
X104140Y54740D02*
Y58990D01*
X111640Y66490D01*
X272335Y175815D02*
X289125D01*
X289680Y175260D01*
X289125Y144225D02*
X289680Y144780D01*
X271780Y143670D02*
X272335Y144225D01*
X289125D01*
X303430Y158530D02*
Y158770D01*
X304680Y160020D01*
X289680Y144780D02*
X303430Y158530D01*
X304680Y160020D02*
Y175260D01*
X322714Y80469D02*
X323450Y81204D01*
X296790Y101210D02*
X362950D01*
X363220Y101480D01*
X378460D01*
X393700D01*
X393000Y123100D02*
X393250Y122850D01*
Y101930D02*
Y122850D01*
Y101930D02*
X393700Y101480D01*
X401320Y226180D02*
X416560D01*
X401160Y207260D02*
Y226020D01*
X401320Y226180D01*
X401000Y207100D02*
X401160Y207260D01*
D44*
X60960Y83820D02*
Y162560D01*
Y83820D02*
X88900Y55880D01*
X60960Y162560D02*
X79880Y143640D01*
X60960Y185420D02*
Y208280D01*
Y162560D02*
Y185420D01*
X79880Y143640D02*
X104140D01*
X88900Y55880D02*
X103000D01*
X104140Y54740D01*
X85220Y232540D02*
X104140D01*
X60960Y208280D02*
X85220Y232540D01*
D45*
X38100Y261620D02*
D03*
X561340Y38100D02*
D03*
X38100D02*
D03*
D46*
X523240Y117640D02*
D03*
D47*
Y142640D02*
D03*
Y167640D02*
D03*
D48*
X525780Y281940D02*
D03*
X500380D02*
D03*
X474980D02*
D03*
X449580D02*
D03*
X424180D02*
D03*
D49*
X398780D02*
D03*
D50*
X480060Y200660D02*
D03*
X500380Y154940D02*
D03*
X355600Y139700D02*
D03*
X377000Y148780D02*
D03*
X424180Y124460D02*
D03*
X259080Y170180D02*
D03*
X228600Y152400D02*
D03*
X436880Y260113D02*
D03*
X81280Y114300D02*
D03*
X38100Y152400D02*
D03*
X78740Y170180D02*
D03*
X147320Y10160D02*
D03*
X414020Y251460D02*
D03*
X271780Y170020D02*
D03*
X352180Y63500D02*
D03*
X358140Y86360D02*
D03*
X335280Y68580D02*
D03*
X274320Y78740D02*
D03*
X60960Y185420D02*
D03*
D51*
X357563Y152977D02*
D03*
X299720Y17780D02*
D03*
X360680Y71120D02*
D03*
X167640Y175260D02*
D03*
X358140Y172720D02*
D03*
X261596Y118573D02*
D03*
X180340Y200660D02*
D03*
X160020Y195580D02*
D03*
X311719Y192364D02*
D03*
X319706Y192820D02*
D03*
X363220Y219560D02*
D03*
X403860Y165100D02*
D03*
X401320Y172720D02*
D03*
X360680Y190500D02*
D03*
X373380Y226060D02*
D03*
X441960Y144780D02*
D03*
M02*
